<mxfile host="app.diagrams.net" modified="2023-08-30T15:18:31.109Z" agent="Mozilla/5.0 (Windows NT 10.0; Win64; x64) AppleWebKit/537.36 (KHTML, like Gecko) Chrome/116.0.0.0 Safari/537.36" etag="xrb0LDNnal65eV1O5X2s" version="21.6.9" type="github" pages="4">
  <diagram name="Page-1" id="PaBjt94Lh7cRk2becHOn">
    <mxGraphModel dx="1434" dy="790" grid="1" gridSize="10" guides="1" tooltips="1" connect="1" arrows="1" fold="1" page="1" pageScale="1" pageWidth="1100" pageHeight="850" math="0" shadow="0">
      <root>
        <mxCell id="0" />
        <mxCell id="1" parent="0" />
        <mxCell id="01CJnqOQS5fo9CUpsCUU-17" style="edgeStyle=orthogonalEdgeStyle;rounded=0;orthogonalLoop=1;jettySize=auto;html=1;" parent="1" source="01CJnqOQS5fo9CUpsCUU-1" target="01CJnqOQS5fo9CUpsCUU-15" edge="1">
          <mxGeometry relative="1" as="geometry" />
        </mxCell>
        <mxCell id="01CJnqOQS5fo9CUpsCUU-1" value="Person JSON" style="rounded=1;whiteSpace=wrap;html=1;" parent="1" vertex="1">
          <mxGeometry x="600" y="170" width="120" height="60" as="geometry" />
        </mxCell>
        <mxCell id="01CJnqOQS5fo9CUpsCUU-3" style="edgeStyle=orthogonalEdgeStyle;rounded=0;orthogonalLoop=1;jettySize=auto;html=1;" parent="1" source="01CJnqOQS5fo9CUpsCUU-2" target="01CJnqOQS5fo9CUpsCUU-1" edge="1">
          <mxGeometry relative="1" as="geometry" />
        </mxCell>
        <mxCell id="01CJnqOQS5fo9CUpsCUU-4" value="Business Event on Person" style="edgeLabel;html=1;align=center;verticalAlign=middle;resizable=0;points=[];" parent="01CJnqOQS5fo9CUpsCUU-3" vertex="1" connectable="0">
          <mxGeometry x="-0.0111" y="4" relative="1" as="geometry">
            <mxPoint as="offset" />
          </mxGeometry>
        </mxCell>
        <mxCell id="01CJnqOQS5fo9CUpsCUU-6" style="edgeStyle=orthogonalEdgeStyle;rounded=0;orthogonalLoop=1;jettySize=auto;html=1;entryX=0;entryY=0.5;entryDx=0;entryDy=0;" parent="1" source="01CJnqOQS5fo9CUpsCUU-2" target="01CJnqOQS5fo9CUpsCUU-5" edge="1">
          <mxGeometry relative="1" as="geometry">
            <Array as="points">
              <mxPoint x="110" y="330" />
            </Array>
          </mxGeometry>
        </mxCell>
        <mxCell id="01CJnqOQS5fo9CUpsCUU-7" value="Business Even on Vehicle" style="edgeLabel;html=1;align=center;verticalAlign=middle;resizable=0;points=[];" parent="01CJnqOQS5fo9CUpsCUU-6" vertex="1" connectable="0">
          <mxGeometry x="0.3333" y="-5" relative="1" as="geometry">
            <mxPoint as="offset" />
          </mxGeometry>
        </mxCell>
        <mxCell id="01CJnqOQS5fo9CUpsCUU-12" style="edgeStyle=orthogonalEdgeStyle;rounded=0;orthogonalLoop=1;jettySize=auto;html=1;entryX=0;entryY=0.5;entryDx=0;entryDy=0;" parent="1" source="01CJnqOQS5fo9CUpsCUU-2" target="01CJnqOQS5fo9CUpsCUU-11" edge="1">
          <mxGeometry relative="1" as="geometry">
            <Array as="points">
              <mxPoint x="110" y="80" />
            </Array>
          </mxGeometry>
        </mxCell>
        <mxCell id="01CJnqOQS5fo9CUpsCUU-13" value="EGRESS" style="edgeLabel;html=1;align=center;verticalAlign=middle;resizable=0;points=[];" parent="01CJnqOQS5fo9CUpsCUU-12" vertex="1" connectable="0">
          <mxGeometry x="0.2" y="-1" relative="1" as="geometry">
            <mxPoint as="offset" />
          </mxGeometry>
        </mxCell>
        <mxCell id="01CJnqOQS5fo9CUpsCUU-2" value="INFA MDM" style="rounded=0;whiteSpace=wrap;html=1;fillColor=#ffe6cc;strokeColor=#d79b00;" parent="1" vertex="1">
          <mxGeometry x="50" y="170" width="120" height="60" as="geometry" />
        </mxCell>
        <mxCell id="01CJnqOQS5fo9CUpsCUU-18" style="edgeStyle=orthogonalEdgeStyle;rounded=0;orthogonalLoop=1;jettySize=auto;html=1;entryX=0.5;entryY=1;entryDx=0;entryDy=0;" parent="1" source="01CJnqOQS5fo9CUpsCUU-5" target="01CJnqOQS5fo9CUpsCUU-15" edge="1">
          <mxGeometry relative="1" as="geometry" />
        </mxCell>
        <mxCell id="01CJnqOQS5fo9CUpsCUU-5" value="Vehicle JSON" style="rounded=1;whiteSpace=wrap;html=1;" parent="1" vertex="1">
          <mxGeometry x="600" y="300" width="120" height="60" as="geometry" />
        </mxCell>
        <mxCell id="01CJnqOQS5fo9CUpsCUU-16" style="edgeStyle=orthogonalEdgeStyle;rounded=0;orthogonalLoop=1;jettySize=auto;html=1;" parent="1" source="01CJnqOQS5fo9CUpsCUU-8" target="01CJnqOQS5fo9CUpsCUU-15" edge="1">
          <mxGeometry relative="1" as="geometry" />
        </mxCell>
        <mxCell id="01CJnqOQS5fo9CUpsCUU-8" value="Relationship JSON" style="rounded=1;whiteSpace=wrap;html=1;" parent="1" vertex="1">
          <mxGeometry x="600" y="50" width="120" height="60" as="geometry" />
        </mxCell>
        <mxCell id="01CJnqOQS5fo9CUpsCUU-10" style="edgeStyle=orthogonalEdgeStyle;rounded=0;orthogonalLoop=1;jettySize=auto;html=1;" parent="1" source="01CJnqOQS5fo9CUpsCUU-9" target="01CJnqOQS5fo9CUpsCUU-8" edge="1">
          <mxGeometry relative="1" as="geometry" />
        </mxCell>
        <mxCell id="01CJnqOQS5fo9CUpsCUU-9" value="Hierarchy Builder" style="shape=process;whiteSpace=wrap;html=1;backgroundOutline=1;fillColor=#d5e8d4;strokeColor=#82b366;" parent="1" vertex="1">
          <mxGeometry x="410" y="50" width="120" height="60" as="geometry" />
        </mxCell>
        <mxCell id="01CJnqOQS5fo9CUpsCUU-14" style="edgeStyle=orthogonalEdgeStyle;rounded=0;orthogonalLoop=1;jettySize=auto;html=1;" parent="1" source="01CJnqOQS5fo9CUpsCUU-11" target="01CJnqOQS5fo9CUpsCUU-9" edge="1">
          <mxGeometry relative="1" as="geometry" />
        </mxCell>
        <mxCell id="01CJnqOQS5fo9CUpsCUU-11" value="Relationship CSV" style="rounded=1;whiteSpace=wrap;html=1;" parent="1" vertex="1">
          <mxGeometry x="230" y="50" width="120" height="60" as="geometry" />
        </mxCell>
        <mxCell id="01CJnqOQS5fo9CUpsCUU-20" style="edgeStyle=orthogonalEdgeStyle;rounded=0;orthogonalLoop=1;jettySize=auto;html=1;" parent="1" source="01CJnqOQS5fo9CUpsCUU-15" target="01CJnqOQS5fo9CUpsCUU-19" edge="1">
          <mxGeometry relative="1" as="geometry" />
        </mxCell>
        <mxCell id="01CJnqOQS5fo9CUpsCUU-15" value="JSON Aggregator" style="shape=process;whiteSpace=wrap;html=1;backgroundOutline=1;fillColor=#dae8fc;strokeColor=#6c8ebf;" parent="1" vertex="1">
          <mxGeometry x="770" y="170" width="120" height="60" as="geometry" />
        </mxCell>
        <mxCell id="01CJnqOQS5fo9CUpsCUU-19" value="Aggegated Person JSON" style="rounded=1;whiteSpace=wrap;html=1;" parent="1" vertex="1">
          <mxGeometry x="950" y="170" width="120" height="60" as="geometry" />
        </mxCell>
        <mxCell id="01CJnqOQS5fo9CUpsCUU-28" style="edgeStyle=orthogonalEdgeStyle;rounded=0;orthogonalLoop=1;jettySize=auto;html=1;" parent="1" source="01CJnqOQS5fo9CUpsCUU-21" target="01CJnqOQS5fo9CUpsCUU-27" edge="1">
          <mxGeometry relative="1" as="geometry" />
        </mxCell>
        <mxCell id="01CJnqOQS5fo9CUpsCUU-21" value="Person JSON" style="rounded=1;whiteSpace=wrap;html=1;" parent="1" vertex="1">
          <mxGeometry x="120" y="450" width="120" height="60" as="geometry" />
        </mxCell>
        <mxCell id="01CJnqOQS5fo9CUpsCUU-22" value="MDM_ID&lt;br&gt;PII data" style="shape=card;whiteSpace=wrap;html=1;fillColor=#fff2cc;strokeColor=#d6b656;size=20;" parent="1" vertex="1">
          <mxGeometry x="120" y="530" width="110" height="60" as="geometry" />
        </mxCell>
        <mxCell id="01CJnqOQS5fo9CUpsCUU-32" style="edgeStyle=orthogonalEdgeStyle;rounded=0;orthogonalLoop=1;jettySize=auto;html=1;entryX=0.5;entryY=1;entryDx=0;entryDy=0;" parent="1" source="01CJnqOQS5fo9CUpsCUU-23" target="01CJnqOQS5fo9CUpsCUU-30" edge="1">
          <mxGeometry relative="1" as="geometry" />
        </mxCell>
        <mxCell id="01CJnqOQS5fo9CUpsCUU-23" value="Vehicle JSON" style="rounded=1;whiteSpace=wrap;html=1;" parent="1" vertex="1">
          <mxGeometry x="390" y="690" width="120" height="60" as="geometry" />
        </mxCell>
        <mxCell id="01CJnqOQS5fo9CUpsCUU-29" style="edgeStyle=orthogonalEdgeStyle;rounded=0;orthogonalLoop=1;jettySize=auto;html=1;" parent="1" source="01CJnqOQS5fo9CUpsCUU-25" target="01CJnqOQS5fo9CUpsCUU-27" edge="1">
          <mxGeometry relative="1" as="geometry" />
        </mxCell>
        <mxCell id="01CJnqOQS5fo9CUpsCUU-25" value="Relationship JSON" style="rounded=1;whiteSpace=wrap;html=1;" parent="1" vertex="1">
          <mxGeometry x="120" y="630" width="120" height="60" as="geometry" />
        </mxCell>
        <mxCell id="01CJnqOQS5fo9CUpsCUU-26" value="MDM_ID&lt;br&gt;VIN&lt;br&gt;Relationship" style="shape=card;whiteSpace=wrap;html=1;fillColor=#fff2cc;strokeColor=#d6b656;size=20;" parent="1" vertex="1">
          <mxGeometry x="125" y="720" width="110" height="60" as="geometry" />
        </mxCell>
        <mxCell id="01CJnqOQS5fo9CUpsCUU-31" style="edgeStyle=orthogonalEdgeStyle;rounded=0;orthogonalLoop=1;jettySize=auto;html=1;" parent="1" source="01CJnqOQS5fo9CUpsCUU-27" target="01CJnqOQS5fo9CUpsCUU-30" edge="1">
          <mxGeometry relative="1" as="geometry" />
        </mxCell>
        <mxCell id="01CJnqOQS5fo9CUpsCUU-27" value="Person X Relationship&lt;br&gt;(MDM_ID, PII, VIN, Reln)" style="rounded=1;whiteSpace=wrap;html=1;" parent="1" vertex="1">
          <mxGeometry x="390" y="530" width="140" height="60" as="geometry" />
        </mxCell>
        <mxCell id="01CJnqOQS5fo9CUpsCUU-30" value="Person X Relationship X Vehicle&lt;br&gt;(MDM_ID, PII, VIN, Reln,&amp;nbsp;VRN)" style="rounded=1;whiteSpace=wrap;html=1;" parent="1" vertex="1">
          <mxGeometry x="620" y="620" width="190" height="60" as="geometry" />
        </mxCell>
        <mxCell id="01CJnqOQS5fo9CUpsCUU-33" value="VIN&lt;br&gt;VRN" style="shape=card;whiteSpace=wrap;html=1;fillColor=#fff2cc;strokeColor=#d6b656;size=20;" parent="1" vertex="1">
          <mxGeometry x="395" y="770" width="110" height="60" as="geometry" />
        </mxCell>
        <mxCell id="01CJnqOQS5fo9CUpsCUU-34" value="Python Script" style="text;html=1;strokeColor=none;fillColor=none;align=center;verticalAlign=middle;whiteSpace=wrap;rounded=0;fontStyle=1" parent="1" vertex="1">
          <mxGeometry x="118" y="395" width="102" height="30" as="geometry" />
        </mxCell>
        <mxCell id="01CJnqOQS5fo9CUpsCUU-35" value="" style="endArrow=none;dashed=1;html=1;rounded=0;" parent="1" edge="1">
          <mxGeometry width="50" height="50" relative="1" as="geometry">
            <mxPoint x="90" y="380" as="sourcePoint" />
            <mxPoint x="1050" y="380" as="targetPoint" />
          </mxGeometry>
        </mxCell>
      </root>
    </mxGraphModel>
  </diagram>
  <diagram id="T0iDbsLNL5LDt27agFnd" name="Page-2">
    <mxGraphModel dx="1434" dy="790" grid="1" gridSize="10" guides="1" tooltips="1" connect="1" arrows="1" fold="1" page="1" pageScale="1" pageWidth="1100" pageHeight="850" math="0" shadow="0">
      <root>
        <mxCell id="0" />
        <mxCell id="1" parent="0" />
        <mxCell id="FdSF5IVDvJ-9tLGK57c_-1" value="Person&lt;br&gt;PII&lt;br&gt;&lt;b&gt;Relatonship&lt;br&gt;VRN&lt;/b&gt;" style="rounded=1;whiteSpace=wrap;html=1;align=left;" parent="1" vertex="1">
          <mxGeometry x="190" y="60" width="150" height="60" as="geometry" />
        </mxCell>
        <mxCell id="FdSF5IVDvJ-9tLGK57c_-4" style="edgeStyle=orthogonalEdgeStyle;rounded=0;orthogonalLoop=1;jettySize=auto;html=1;entryX=0.427;entryY=0.983;entryDx=0;entryDy=0;entryPerimeter=0;" parent="1" source="FdSF5IVDvJ-9tLGK57c_-2" target="FdSF5IVDvJ-9tLGK57c_-1" edge="1">
          <mxGeometry relative="1" as="geometry">
            <Array as="points">
              <mxPoint x="515" y="140" />
              <mxPoint x="254" y="140" />
            </Array>
          </mxGeometry>
        </mxCell>
        <mxCell id="FdSF5IVDvJ-9tLGK57c_-2" value="Relatonship" style="rounded=1;whiteSpace=wrap;html=1;align=center;" parent="1" vertex="1">
          <mxGeometry x="440" y="60" width="150" height="60" as="geometry" />
        </mxCell>
        <mxCell id="FdSF5IVDvJ-9tLGK57c_-5" style="edgeStyle=orthogonalEdgeStyle;rounded=0;orthogonalLoop=1;jettySize=auto;html=1;entryX=0.34;entryY=0.967;entryDx=0;entryDy=0;entryPerimeter=0;" parent="1" source="FdSF5IVDvJ-9tLGK57c_-3" target="FdSF5IVDvJ-9tLGK57c_-1" edge="1">
          <mxGeometry relative="1" as="geometry">
            <Array as="points">
              <mxPoint x="815" y="200" />
              <mxPoint x="241" y="200" />
            </Array>
          </mxGeometry>
        </mxCell>
        <mxCell id="FdSF5IVDvJ-9tLGK57c_-3" value="Vehicle&lt;br&gt;VRN" style="rounded=1;whiteSpace=wrap;html=1;align=left;" parent="1" vertex="1">
          <mxGeometry x="740" y="60" width="150" height="60" as="geometry" />
        </mxCell>
        <mxCell id="FdSF5IVDvJ-9tLGK57c_-6" value="" style="shape=image;verticalLabelPosition=bottom;labelBackgroundColor=default;verticalAlign=top;aspect=fixed;imageAspect=0;image=data:image/png,iVBORw0KGgoAAAANSUhEUgAABZQAAAGkCAYAAACmZqCPAAAAAXNSR0IArs4c6QAAAARnQU1BAACxjwv8YQUAAAAJcEhZcwAADsMAAA7DAcdvqGQAAGB0SURBVHhe7d0LnFTlfTD+33K/CguCICiiVhMvMVob1HqJRt9UG9tGIkaJafPSxNpYa5Poa/7YXPXV11ya+poak9o0MRpFMW00GouRiL4ixmi8YBOjIoiCIAuCgFz3P8+ZM7uzy+4yC3vf79fPcZ7znDNnzsw8zOW3v/k9VbUFAQAAAAAAO9EnvwQAAAAAgBYJKAMAAAAAUBEBZQAAAAAAKiKgDAAAAABARQSUAQAAAACoiIAyAAAAAAAVEVAGAAAAAKAiAspd0AMPPJC3AAAAAAC6jqragry967ZviHjxPRGbX8o7Ghk5PWLij/IVdiYFlE899dR8rWXfeOTTcf/vb8nXds/EEQfGv531RL4GAAAAANDQrmcob98eG376zahdvybi7TnNB5OTNbcU9l8fL78R8dTLeR9t4onXfpG3dt/St17MWwAAAAAAO9rlgPKGe/45Nv3qnoiqqsLalmJnS2rfiZQL/ZPHIl59M+8DAAAAAKDb2OWA8qbH/zOGTb8yqoaMiKgakPe2oGpQHDAu4piDI37dQjIzAAAAAABd0y4HlLevq4m+E95VXBn6gYgBk4vtpgw7tXBLQ7PmxNERq9ZmTQAAAAAAupFdr6FcLgWLD3o54rDappf95uQ7FrXBNIBFS2+NqVVVUVW2XPVYvo0WHTj6PdG3T798rePM/2oFz1F6XqfdGsvzVQAAAACga2ibgHIr7D8u4k//KF9pE2fFLa/WRm1tYXn1lnjyWEHlnTlmnz+Jf/mzeXHSfh/Oe1prflzVVPA+C/BPjVuX5usAAAAAQI/SsQHlmhti2NovxfgtX4pY0Wh556l8p90w8bz49q1nxRVz5ucdNLZf9btj5sn/Hq++9ULMf/XevLe1jo2Z86/c4XFe/vDsiFu/HedNzDsAAAAAgB6l4wLKbz8Q8frfRqz4ctPLq+flO7aBZxcpl9CE4QOr46rT7ozt27fFP845JzZuWZ9v2QXHnBJXfuHBqA8pL48HfxIx9YRx+fpOPHZVVFVdVXZ9AAAAAKCr67iA8uaX8kYzNv02b+yGpbfGp8+7K678zHlRCmummr31NZYbBjCX/3hqVH31qqx8Q1395SzQWVyf+uOGYels/3zbjtuXx63TCsf4cXld584JmB4ydkreqtenqm984eQfxpihE+Lqh2bE6+sW5Vt21bEx49Yn4+ulx+Cxm2L64Z+rPDv5mJlRWzuzcBQAAAAAoLvo8BrKbe+umL5PHsDdZ3ocNb82Zh5T3JKCycc9e0ssS/WVC8uyW5+M4xoHeb8QcUq+feYxy+PWb14RVxaOkeoxx3k31e2bjjX+J1PrjlVb+2gcdd74HYLOV/wk4tvZ9mVxy9lXxHFf7diQ8sQ9Doxv/en9cekJ3yk8JvVP799OuSaOGH9C3PzUNfHYqz/Pe3fPuBOmRvzkwSwbfP6cwuN2Wik8XKyxXAyqT42rvjp1h8ep8cR75YH/qd/f3WA3AAAAANAeOi6gPPAP8kYz+u2dN1qrbFK+LCicdy+9Nb7+hcK2b9ZnK48799tZkPfB8snkvnJKWZbsolh0RxRrA088L2aXMmibOFZWR7hR0Dk568On5PuMi1M+fFaHl99YuvbF+N6v/jFOPfCc+MoHbo1+ffrHaQeeG3/27k/Gglfvjx/95v/ke7aBiafE1JgdDy6dHw9+4co4JXvsU6b2cfHkrcvy5+TbMfnZu7Ldm5Myv8sD/98+8Mlo+RoAAAAAQGfouIDy0FMi9v5OxNgvNr3se3u+Y1sqy17OlvEx/Y6IJxc1F+I9NmbW1sajcVxx/1J28dJFhSMdFZMbl3OYOLnQ+2QsWpqvFxw1ucIawu3ojuf+b3xt3oXxRxNPi2+ccW985o//byx96/fxvx/6n1Fb+K/tjIvzPnNU4TFOAeQZeWA+BeWvjM+dWxfGLwbWW7DoxYZlSlLmc8vXAAAAAAA6Q8eWvBh1Qbw54PL47/V/HzH2Sw2XIcfnO7WRLAh8ZTyaZ72WL7Prgp1NO/Yf037L4pZnjyuWapg4Oc5qFDjOFG7jyaYCzV3AAy/dFjPnnB37jzo8Nm/bFFfMmbZ7k/A1J03OV3h06ifjmxyTz76ivrZypMn6Ws43nnzgWXHFN+vLXyx/eLYMZQAAAADogjq8hvKC55bHV//18XytHR0zMx79SuMaxsXavjvU8y3JJuRrYiK9iefF575yV0z/TH3QMzvWPtMj6jJzu55fv/ZgzJh9dHz6pye1wSR8zTk2Trl1apxSF1QfF+fNKtaXLmaFfzoWHd5yvvG4c2fHo4dPj/F5JvmnXzxKhjIAAAAAdEFtE1DeviHihQMjnqtqeln6sXzHoj5Vhb4OkDKN68pXZMtxEfNbyFA+ZmY+cV/ad3xMP/zRun3TsZZ9eHZd0DMdK9UJ3lm2c2dbsX5pVle5PR17bnlt6aRYOqSYET47Zv7j7AaPY1bnOtWonlV/vWJWeJ5B/o8zG2wDAAAAALqGqtoUwdsFq684OYZNvzL6v/uPI9b+Z8SSv8i3NOOQtyP6DI0vf/fxWPv25vjGZ9q4xEUP8sADD8Spp56ar7Xs3NvfFas2NJNxvQv+6xNr8hYAAAAAQEO7nKE84Og/jXU3XRK1G94qrG0pdrak9p148FdL4+af/Tbef/SEvBMAAAAAgO5ilwPKQ8+8JAYe95GIlOBcNSDvbUHVoBg6uF984ZPvizNPnJx3AgAAAADQXexyyYsGtq+PePHwiM3NTPw27NSI/ebkK7Slrz/y6fiv39+Sr+2eiSMOjH8764l8DQAAAACgobYJKAMAAAAA0OPtcskLAAAAAAB6FwFlAAAAAAAqIqAMAAAAAEBFBJQBAAAAAKiIgDIAAAAAABURUAYAAAAAoCICygAAAAAAVERAGQAAAACAiggoAwAAAABQkao5c+bU5m0AAAAAAGhWVU1NjYAyAAAAAAA7peQFAAAAAAAVEVAGAAAAAKAiAsoAAAAAAFREQBkAAAAAgIoIKAMAAAAAUBEBZQAAAAAAKiKgDAAAAABARQSUAQAAAACoiIAyAAAAAAAVEVAGAAAAAKAiAsoAAAAAAFREQBkAAAAAgIoIKAMAAAAAUBEBZQAAAAAAKiKgDAAAAABARQSUAQAAAACoiIAyAAAAAAAVEVAGAAAAAKAiAsoAAAAAAFREQBkAAAAAgIoIKAMAAAAAUBEBZQAAAAAAKtL9A8orauJzl74en3tgY97RjOdWxh8X9rv+uXyd1nn6X+OpqVPjhafzdQAAAACg1+nAgPLauP7S1+OPb16br+cqDQj3Nivui+emTs2CuHXL5++Ldfnm9vNsvND4dr/7bL4NeGHWi3HxxaXl5Xi4Jt/Qnf321ez+3PHbfB0AAACgGR0XUF6xNV5Jl89sivIk4VXPbI75hcv5y7YUO2jeC/8aL07911ier7ZIRjG0sXXx8DdfjOsfyVcz2+OOf389VuVr3Ufxvlz8zYbnvnRF+//JCgAAAOjeOjCgvC0LHEdsiV/WRZTXxo/v315sLt/aDYMy7a//jBviyNmzC8sNUX1Q6rkvlnVExvAHv5TfbmH51OF5J/Req+atjDvSX8X2GxJfvO7AuC5b9oqzJxa3d2vv2ie7P/9w4vC8AwAAAKBpVTU1NbV5u12temB5/Nn9EceO3R7zY1D89NJRMTrVNf7BtmLfiv5x49fGxGHZ3hvjnq+tjqtXZCsF5dtKxyoGoo99T/+IZ7ZEfLA6vn7q4GKt5B+Usp37xOcvHRcfGlto5v3n/uXecVHpQF1ZKnlx4b9GzLghDjsj3YEklaP4UqyP02P87L+OcbEiXvn8hbH6heLW/gcdHFsK7eobLon4p7L+7BjRzL7/O/YrHT6T30YKKJcHklPG81fui6FfmB0HHVFYz8+vLq8833/5d6fGssLz3HC/12LP7HwL8uOU9ofuIWX0vhF3vDIwLrpun8j+trOD0j75atTvu2rey/HlOyNOOD7i4UeKr10n/O2Bcfa7Co2a1+OfvrQhFqXOFKz+zN4R+f5nf2n/OGFU/fXT+iHPNXWsvWLcvflt58cYncpY/Mumwn4DC/ttyvZrvK2ocJ5/G3F92repc0qOHxnXTduz0MjvY+E6J8SmeDi7ry09JgAAAEBP02EZysuWpcBH3/ir0/tHrNgc81dEPPfUloixA+KvjkynsS1eyQLIjYPJyZa44Gs1xQzm51bWBZOT+c9syTOfC1I95jxo/P++Vlj+sm9c/bWVDUpsdG+Hxx4fzJsFy79bHyBOtrzwu7y1o9bsm7n/S3U1lJ+7t8GTsWMwOSnsn/Yb96kvxdDC6vrbivWel/9H2u++eDM7xop4pdAfB/11HCiYTLeyKZZnwdq+MbrY0UjjYHKyKa5vUFJie10AOHn4X16N9E/yhQc2xKIs6zllO2+LVRXVZG58rLLbfmVDPFhWC7kumJwUtn151pv5SjMaB5OTR9bEP80rK4fxSimYnBTu586OCQAAAPQYHRRQ3hivpMK/Y/vG+MMGxrmxPa7+wfL492cizj19VIwv7lS0YmP8MsUe3zOsGBQuLD/9YOE0y4PQWeZxHjS+dFAcm10x6uox//gHr8cfpwkAs0zl8hIb3d2zsfb+vFlqp+BsXpriwBkHFzfF2Njvo6dnrZQpfNgZb7Swb+ute+LhLJicjl1ejmPLw7+OdXF4jE/HfuHhWLWieI5ZNvRNP43lT/80C2oPLZybH9bTvQyMcfsVLl7Z1nRpnpp18UQKsKZM3rwcxhc/UnjdeuWdeL4sQJwygNO2i47POwr/Yt5YWrhIgd5vrotDpu0TB40qbtmZ4rH2irPTeWVZwoX1vx2YbStXus26fZdujlXvGllsZ4HshtnFq557JwsmN77eoifWld33/PauGxkn5D0AAABA79BBAeUtxezjcf1idOwR52YB4lT6on+8/7CI0eP6FjZuzzOUm7Oz7SVlweZ86RYlLnYqlbdI5S4KPjilWD6iPZXVUK4vubETL7yWnd/wM86NofG7WH1hsTzHnlen9ftiWSp1cdBfx/hUCgO6leFxyNHp5XJTXH9xMbO4aF08PKulSfm2x/K6160+MS7/pzR6XOmld3ic8Jk80JuCyhe/GHfUZRfXX3fV8vps5KL6Y2VKmdNj+8bkrKPeDhPtNRcU35ny69VlaueBdgAAAKDX6JiA8oqtkZL3jh3fP1sd/Z4Bxazi9wws1kUe2zdbf2X5xkJ7cLw/BUqeebuYZVxYshIXYwfFuYWdDzsyHWN7XP21PAv5a+/UlbwoHrdsW75c340zlLfcdGFeeqJUsuL0GJ+Vi8jLX7zwr/FiXprixZuaK2PRmn13bvjRJ0R6FtZ/pXis0rn1n/FneaA7z1IuKPbVl+rof8Ifyk6mWxp94pg8GzgFlV+Mi7PljbgjZRiPGh5Hp22PrMn7X4wv31l43dpvSJySahK34IVZa2KvzxzYILt49Njia+XD/1I81vWPpLX+sVeF2cvlFt35Rv25ZlnUg1usdzz6sEFZULp026XrTf7ISHWSAQAAgI4JKJdKUew3bnCxIwsa94nPf3CPfL1fpFjM/Kc2xqoYHB+6tDo+3yAptn/cmCbxS83DxhRLYOTSpHylkhcxdlR8/S+LgZiSbjMJXyWyrOF8cruCcZ8qlpooSaUlmtOafXdq7Olx2A1/nQWV6xTOrTyTuZilfHAMO7rYN25KKsFxeuxZabYzdDkpm7i8XEXSJ87+q70Lr01lmcZ1BsZFaQK8fK1JNa/Hzx7JA9RpkrzjRxYnxXvXPsWSGXUKt/OlXZv47oSPDKnPWk4lLrLJ9Vowau/4hy+VXScpnNc/nOhPQQAAAEBEVU1NTW3eBqCn+O2rWZA61ULOgtQAAAAAbaBjSl4AAAAAANDtCSgDAAAAAFARJS8AAAAAAKiIDGUAAAAAACoioAwAAAAAQEUElAEAAAAAqIiAMgAAAAAAFRFQBgAAAACgIgLKAAAAAABUREAZAAAAAICKVNXU1NTm7VY57Y7qvEUl5py9Oqqffjpfo62tPuKIHv349vT719HS47lihdewtjJ27Oq8BQAAAPR0MpQBAAAAAKjILmcoV1fL7muN1atlKLcnGcq0hgzltiVDGQAAAHoPGcoAAAAAAFREQBkAAAAAgIoIKAMAAAAAUBEBZQAAAAAAKiKgDAAAAABARQSUAQAAAACoiIAyAAAAAAAV6RkB5ceuiqqqqrjqsXydruX5H0XVDxfmK73Qyl/E1C//Ipbnq7Sgt48VAAAAgC6uwwPKy388tU2Cv8XjTI1bl+YdPc7CuOrkk6OqbvlC3Loy39SOlv/iC2W3WVh6eCB0+fMLm7l/NTH/+Zq83U2lQHbdc/mjmJ930/He/NnUeNe7qsqWq+I3+TYAAACA7qSDA8rL48Gf3JW1rpjTMLzVOEBcWcD4rli0WwHl+XFVVVVUfbWrhtpmxKNz50ZtWmadFLOnnRxXPZ9vagfzf3hyjH/kpFhWus3Csuz4h2J8Dw5GLnrioripqcf0+XvjuCeW5SvdUU3c+i9XxlHfzp/Lb0ccJ0u6U532jWXx29/W5svMeG/eDwAAANCddGxA+bGbYvodEWedfVbEFx7crSDluHNnR21tbcw8Ju/o6cZ8IGbPuiKe/HQlwd2U3dzKIPDzP4rjFl0Ry774gRiXdyXjPvCVWHbFC3Fcm5QhqIlbv3xyTP1FMfM3BbDbM0C+czWxaFHEFXc0DrQWzvOOm/L2zqWs7tJ96jqWxaJfzohTDslXD/lY1DZ6bndNw+ewo2SZ8wLizfrNv1TFd57OVwAAAADaUYcGlOfPuaLw/yvjc9+cGmfFFfH1H5fCQ/PjpvNS5vJdMX2fVA5jx/ViJvGtceu0wmXVVXFPUxnMc4q1lLNl2q158KlxFnL9+vIff71wFgVfOK5u/1JJjuJyVX1QdumtMbXUX3fsDjbmA/G5T9wUD7ZDEHb+EzfFlWc3HXAc94Fz4srv394GJTdGxXlfnBuzPzAqX+9sKeh6QmEsPhQPlt+35++N6ZNnxJWLlnfjAOahMSP9IaDNS6V0znOY/rDRNgFxAAAAAHZHxwWUl94aX/9C4fIrp8SxE0+JqWdH3PWTB1sXsPvC9CzDOc6eHPsWexq44gtZeLjojukxvrWlLB67KsafF3HLq7VZ9vOyW5+M4/Lg8fzvT4+7zr4lltUui1sOX7SbpTbaRoN6xz/8UV1W8vwfXhRXxE11JQ5SJnBpv6mF/XacIC5l6p4Qk8fkqzsYH5PfnzcbTDCXslXrA5bNnU+5uqzklBH9/cJz9ukvxL/8R6Ps06z2bwfUjF65PJ58/0nx7bMPiun3lTKwU3byC3HL6WfE5BRwznsb1rT+Qlz1wzwruXCun77y4bjryql5tnXD2tf1mbwPxadL/R006VwWhJ17TiyaVjznusezwcR3Zdnsqb/wfGZ1l384P8tErs8gr89MLj2H2fNddl/Ks4gbjIWycZCuO7VwG6m/7hjZPmXnt+j2utrPdY9f2Tlnt18YX3XH32E8d01zPju+vobyJbfGm09fVbzMt0daz2srN6i5/C+lR2953HPJ1Pi7S/L+Uh3mwvU+el3Et86ZGvcsT/vk28uPDQAAANBGOiygvPzh2ZFyjq887djC/8fFKR8+Kwv63pRNzndszLi1sB5nZcHcmcc0Xk/7JFfGo7W1UTvrvBib95S7cn4xEFybgr5nFzqeXdRioGncuZ8rHLHgK49mx1yUZVAXs6JTJvL4lCV9x+x4cOnyWPRsYVMKUk97ME75x5lx7MR0xU70/I9i/JUH1ddYPjqK2dYFx378+sL9mhGPfvEDEb/4QrGURb7ftye8kD0PDY2KyZMfjkVlAdxioK8U5EuZvFl381o4nyYd8rF49BOF5+zbX4m//YtL4pbCGZdqGc+/r/CsXHFJnNdsgLuNrFwWd00eF+MOOSNuWZRnYK98KmbHSXFKdtsv5I9JCqZeFE9eMbt43+ZeEpMXPZw2ZFnj377ihDirsG3mIcX9olS3uLDUZfIWHr+ps1Jf4blpk2zvSh0aM9O5ZDW4KymDclLh9Av7f/zYOO+L10fkJVaW/+JbMX3y9Q0yk1PA+tG4qBh0zgLrhec/ZRGnsVBeizvVby7/48Lxl2T96fF68JGIW7LH5ZI4Jd8cvzwoPpedc2EEXXlvk+d8RRxZPHZheXTylTG+g4L0u6NBDeVvnRd7HjEzHjltdnz5Z+lVan5855wn4+u/nBnvffqqOH7O1Hgk3/eRSV+Pv8v2SQr/ek8rHue2i6+Im1J/4Ti3XRxxye2z40PxYNxf+NeUXffyukcUAAAAoM10UEC5VMIi4opjy4K1ab3R5HwtStnNebMidyyqzzAtBZeXLoons47m5EHrumV2nDdxXJw3Kw9Sp6By4fyvygLhHWzlL+Lr3y/WxV2+7IU464oz6h+PQ44sBscbWfTaww1KWYx7z0mRQvWNHXv0jAa1hLPs1jwIeesvbo8r3l8Ksjat0vNp2qg472/z+tD5ffxcB5RUyM55wvhCq3D7eZZyCmYflT1e5UH2Yj3i+nMaFaccf0LeLpMFo6+IGaW6xeXqHr+ybO/2VJbRmxkzLo7Kmy1KAfa8WSqb8fVf/CJuKjyZt5x+aN5f79jTC89bYdzcmv0RoPj871A+JQXs318KzkccNb7+cTzvi5dE/EvKNP5WPJj3xieOLI6jFs75yqPrzyWdw1ndtDzJnn/6uTj0szfFPT/7enzr4s/FhwoP2ptLC69QP58ex+cZysd/9q6Ys7j0SnZWfPAPi4/sxElN/Esed17838sjvpyue03dIwoAAADQZjomoPzYg81nq37h6w3rIO+GUrC6qmp8sTRGFoCeHJPLAsFV+0zPMnTPOnByukoDx56WQqBXxHHZMUpLsU7z/K/eFJNn1Ubt/MrDpG0qlYGYdmUc9e2PZcG2ceMPirvKszeff6rJx3jyhBMaBIqXP/NQExnKBSljOGV6lpcPyLJvX4jppczTrG9cHPXLUimI+szlSs+nWXl96OMK97EUmGxvKdheF9xMAfDvX5Rlc5cCwumxe3JZKrmQgsA3xdfrylekzNo8Q7ncmCNjalmmdafK7k9ZJnR6Pt5fuB+pPWZ8fQA2lf1Il81I9bOPuvLKeLK5jPH0vBXGzfTC4/btPODe+I8TWU3qXx7UTEmVYk3mZYXBUl92ZOeueKKs1EYa0w0C4d3JsfGRbzwZn/vsUXHb3xZH/Z4Tj4r4kzzLuLScNbny8hUpqPzbZfH1mB53mqgPAAAAaGMdEFCeH1cdm0KLxfIV9Zm/qUZxyrC7K6Z/vxVZyi248tZb6rNvU73jf8xCr3HerEcbZst+5dGYfW4T4adjZubnVJLOeXacF6n+cx5oTvelcP36Mhzt6aY4rlQndtpDWcmEmaXs10M+FsuySdfy7U+k3OodZWUJUqA43+/Trx3UZIZycuzH50bt2cvq9k1LKl3waH47xXq6pcne0vZUBiIPNFZ4Pi3JMk2jY7KTU1C4Yd3odL9OaJjNnYLkry0rtFLQ8/o46sqp+ePyrVg0uYkM5Xy/+HT+GBSW+hrKHe3QmJllmOfn8uko+6NAMQicPc9lf6RoWnpcrmjxOUnP2y0NMpILY+H4h+rHUbrtuU3cRvojSb7P+MJgaSoDujlXxlN1j3FWXuPjlV+3szSooVyqf1yQspS//o0Z8d58PZWwSKUwShnK2XLXotgz39yS+trL4+NzcUt85Ih8AwAAAEAbqaqpqanN261SXV2dt6jE6tWro/pp6YItSXWbPx2XNKjTW6nVRxzRox/fnn7/WiNNyvfg0WV/XNkF6fFcscJrWFsZO3Z13gIAAAB6ug6blA9atjBuuvKgDspOBgAAAAB2hYAyXUBN3PrlVD6jY2onAwAAAAC7RkCZLqA4MduulLqg90m1vnen3AUAAAAAu05AGQAAAACAiggoAwAAAABQEQFlAAAAAAAqIqAMAAAAAEBFBJQBAAAAAKiIgDIAAAAAABURUAYAAAAAoCJVNTU1tXm7Vaqrq/MWAAAAAAC9gQxlAAAAAAAqIqAMAAAAAEBFBJQBAAAAAKiIgDIAAAAAABURUAYAAAAAoCICygAAAAAAVERAGQAAAACAiggoAwAAAABQEQFlAAAAAKDXeuCBB/IWlRBQBgAAAACgIgLKAAAAAABUpKqmpqY2b7dKdXV13gIAAAAAmrJgwYJYt25dvla0xx57xPve9758reO8/PLLsXTp0ujTp09MmjQp9tlnn3xL17Nly5bssRs8eHC2vnHjxpgyZUr0798/W29LqeTFqaeemq+xMzKUAQAAAKCdpMBoClaWL5s3b863dpzf//738c4778TRRx8d733ve6OmpiZeffXVfGvX8tprr8WTTz4Z++23X/zhH/5htqQAeOp7/fXX8726jzQGli9fnq91TemPHhs2bMjXWiZDGQAAAADaSMoCfvPNN6Nv3755T8u2bdsWY8eOzYKn7emRRx6J4447LstOTlJQ+6mnnsqyflvy1ltvxfPPPx/HHnts3tM+nnnmmRg2bFjWTsHuww47LAYNGpStl6SA+HPPPRejRo3K1t9+++14z3vek7V3R3tmKK9duzaeffbZbDwcc8wxeW/Xkx7/9Fy/613vijFjxuS9TZOhDAAAAABtJAXlDj300LrM2p0tad/Vq1fn124/VVVV2VKutrb5PNO07aWXXsqCoe9+97vz3vaTAt37779/tqRE1vQ4pselfEl9aVtpv1JwvKtasmRJFoxPGeGNH/uuKAXnFy1aFC+88EKLY0NAGQAAAADaSKrxm0pJpEzlSpa074ABA/Jrt5+99torXnzxxaydgoUpaNhcDeVU+uDxxx+P9evXZxnMI0eOzLd0jBQ0TrfdOKCc+rpD1YStW7dmGb+p7nOqlT106NDYvn17dv7psitJ55Oe71SWY+DAgfFHf/RHWf8TTzwRmzZtytqNKXkBAAAAAG0kBRNTZm+/fv3qSjM0Z8WKFdn+qcxApSUydkcKYKdJ+dJtpttLpTYOPvjgBpm+Kas27fcHf/AHMWHChLy3/aVSFqnMRWvsynWa0pYlL1It4v/+7//OMqj33HPPvDeyzN9UsiMFmdNjn4L0EydO7JDnvbEURE61qN94440s6zv9QSOVF0kZyqU/bqSxmepup7E5evTorK9EQBkAAAAA2lAKyqZM5fHjx+c9TUv7pczQAw44IO/pOOl2U0A2BTgPP/zwLJC4cOHCrLZyCiwOGTIk37Nj9ISA8rJly7Ig7SGHHLLTrPNUWzkFbFPt7MYB2/aUbjc9biljfdy4cdnz3Fw5jjQ2UqZ1qqmcAuQlSl4AAAAAQDtJk+Elr732WpalmpT6OlMKeB955JExadKk+PWvfx2PPfZYDB8+PCtx0dHB5HIpizedT0tL2qcrSsHapJLaznvssUcWuP/d736XBaE7QspGTqVO0vOe/oiRSnG0VNt58ODBWVmUNHbLCSgDAAAAQC+V6imn2rkpeNjSRGwdJZVeaGrywvIl7dMVpfIhKev3V7/6VV1wuST9MSGVEkmXb775ZlZ2IgX104R9KaicypC0p1Ld7BTETs91uv1Vq1bFK6+8UlfPu/wcUjtlMqdgd/ojQzkBZQAAAADoZVLJi6eeeirLWk0Tx6XJ2FK2apqML03S1lnSeZUCnM0taZ+uKgWUU5A4BW/ThIsly5cvj2HDhmU1k1NpjEcffTQLLqfg+L777pv1tacUxE5lLlJt7xRETlnyzz77bDbZYZp8LwWOt23blu2bxkQaBymLOmUzNy7fIaAMAAAAAD1cyjj97W9/G/PmzYsHH3ww5s+fn9V4PvTQQ7MgZwomp4n40vLkk0/uUOago6Ss3VSvt6Ul7dOVpQzglEmdArUpaJsCtaVJEFPwONWsPu6447L9UjZzmryvvctepOOniQBToDhlT6dzOOmkk7KA8bvf/e6s/EXKYk5B7ueffz7bns61KQLKAAAAANDDpYzZVObg6KOPzjKSR4wY0WQt4lGjRmXbUwAyTcjW0dnATWUol2pPdycpQH/ggQfGhAkTskzw9NiXS3WWUzZz2icF+lPwuT2tX78+GwPpeU9lL6qrq3eon/yb3/wmm4gvPf+pnnZzBJQBAAAAoIerqamJd73rXdmEe6n0QspKbS4rNpU4OOqoo7Lg44IFC7KyCB2lqQzlyZMn51u7nxSgP+KII7JJ8JoyevToLDu4vScaTMdPmdJpDDQlBbfTOR5yyCFZNnVLBJQBAAAAoIdL2aiNM1J3NgnfpEmTsmzWJUuW5D3sihQkHzNmTL62o5TF3BFSCYvGY6AkleNo6RzLCSgDAAAAQBsrBWtTLdok1clNNYuTUl9HShOyvfjii1k7nVsqf1BJADFNzJYybGk/6TFOgfv2dNhhh2VB47ZQVVNT0/KfIpqR6mwAAAAAAA2l8hILFy7Myku0JNW1TaUnKs0M3V2pHvHSpUuz+r0puJjq96Z2V5Dq96aSDK2RSjO8973vzdd23QMPPBCnnnpqvsbOCCgDAAAAAL2WgHLrCCgDAAAAAFARNZQBAAAAAKiIgDIAAAAAABURUAYAAAAAoCICygAAAAAAVERAGQAAAACAiggoAwAAAABQEQFlAAAAAAAqIqAMAAAAAEBFBJQBAAAAAKhIVU1NTW3ebpXq6uq81TaqqqryFgAAAAAAXVGXCSi/vG5d3qKn6VtTE0899VSsWrUqRo8eHUceeWRMmjQp3woAAAAAdBdKXtDuSsHkJF2mdQAAAACg+xFQpt2VgskljdcBAAAAgO5BQBkAAAAAgIoIKAMAAAAAUBEBZQAAAAAAKiKgDAAAAABARQSUAQAAAACoiIAyAAAAAAAVEVAGAAAAAKAiAsoAAAAAAFREQBkAAAAAgIpU1dTU1ObtVqmurs5bbePldevyFj3N3Fmz8la9GTNm5C0AAOi+ah+9LuK52VG1YmHEti15L5Tp2z9qxx4a2w75cPQ7/pLYXlsbfaqq8o0A0P3IUAYAAGit1YsivntSVM35x6ha9hvBZJpXGBtpjPT7xRejtjBmagtj551t2/KNAND9yFCm3clQBgCgx/nuSREpkDz+vREn/a+I/U+O6D843whltmwsfOGdG/HQ/8nGTG0aM596KDZs3RpD+/XLdwKA7kOGcg+05He/iyfmzIlf3nlntqR26gMAAHZfVuaiFEz+xM8jDj5DMJnmpbGRxkgaK4Uxk7KVtz3yrdi6fXu2AEB3I0O5B9n49tuxcP78WLd6dd7T0PDCc3boscfG4GHD8p6OIUMZAICeJJUtyMpcfPTHxUBhwaZt22L15s2xcevW2KUvWPQ4qUry4H79onrAgBjYt2+x83f3Rtx2bpalvOWv58bbW7bEqIEDi9sAoJuQodyDtBRMTtK2tA8AALDrsgn4klTmoiAFk1/fsCErYSCYTEkaC2lMpLGRxkgmHzNpDPXv0yfbDgDdjYByD5FKWpQHk/fYY4/40Ic+FOeee24MLPuLd9pH+QsAANgNpQn48jIXKTNZIJnmpLGRxkimVBolTdRXuNiSl7zYXmsEAdB9CCh3Jc/eEFffV5Ov1Ftz3+Vx87P5SjNWLFmSt4rWrl0b99xzT7z00ksxrFGJi8b7AgAAuy6VuYCWNDdGSmHkbQLKAHQjvTagnIK0004+OVuaCuK26NkbYtrl98aafLVZK++Nq/PbmHby5fHgypp48PKTdxoc3hVvv/VW3qqXMpOHDBkSq1atynuKmtoXAADYNUKB7MzOxki/Pn1iTSmLGQC6uF6doXzmdXNj1tzZMeWh2+OFvK8ih18Ys645I0bmqy366PWF20i3c02cMmZUnHLN3Dj/8HxbOzv44IPjmWeeydcAAADoilL5i/Uy3QHoJpS8aCxlH5cyly8vlZpYGDfXZRkX96nLai7bf9qN+eQczUoZyjfkwevSMQtLU9nOZce94aG8r/F5lBk2YkTeqvfmm2/GunXr8rV6Te0LAAB0jm/9/rW45DcvtclyXeFYdE+bSxP3AUAX16sDyndfnIKzU+M7C/KOFLC9OOLKLKN4bkydnG94dl4svWx2oe+yOKrYk2u4/6wLDs37y9x2UR4YbhgEXnPfzRFZhnRhmb44bmhQdqO15xExdt9981a9Aw88MIYPH56v1WtqXwAAoHO8sv6d+NZ7D2iT5eXCseielE4BoLtQ8iIFbWdNitkpu3jl4lj60RPjoHz7QcdNKzYOvzAujGtj2snXxpPFnqJG+zepQcmLvK9gxZIFeUC7sFw8K55asizfUtDa8yjY9+CDY3h1db5WNG/evKipaVgfOu2T9gUAALqmB95YHT9fXtNgWb91WxZwbNyfspIBADqSkhclixbHmjGTYuJt8+rqKb/w6Ky8FTHy9Gti1nWTYsETZQHaRvu3Vl1AOy3l2c2tPY/cocceu0NQuVzalvYBAAC6pvmr1sY9y1KwOAWV65efFfrub9SXliQFlgEAOoqSFylDeNrimJpNsndonH9dxBVZiYqTY/aiKdl+L9xYyiReHFOOHpX1FTXcf+c1lOsddMH1EaXb3+G6rT2PosHDhsXRp50WBxxxRBY8rurTJ1tSO/WlbWkfAACgeymWQ+iAogjl88VUZGHc3NScMABAj1VVU1OzS59KqlvIhN0VLzcxeRw9w9xZ9RnWJTNmzMhbAADQzXw5n+T6i29lF7v7XSaVrUj1j5NN27fHbUtWxubt9V/TttXWxp+OHxVD+/WNn7z2ZpRtiqqqiLMm7BmjBvTL1suPVfLg5SfHa9PnxvmH5x0r742rU1LN3At3LN+XAspLz4nPn16ewJImB785JsxqWMavKAWUF8eZWYJOy9bcd3l86tri/DBHXja70W3sXHb9JefvOHdNk+fcnNL5HhNPXj614ePSzvYvzW9TNn7S2Cn1l7cBoCtT8gIAAKCLGNinT7xv1PA4bs/65YQxe8Q+QwZmQeNjRjfcdmxhvRRMbs4pn700lj5a/4vINU/Mi7jsnJbngmng0Di/0Zwwu6pY9m92THno2gaTllciK//X1ETou2RUnHJNxwWTAaAnEVAGAADoIp5c/Xbc+PKy+N7Lyxssd7++Kn658q0d+tMyr9DfojHHxJRFN+cB3IVx97WTYmqWzZsyj/OyeuVlKx5KE4Gn/hvyeV3Kylqk7OamrpNp5ngtavo6deX+Tr48rr68eB4pQ/nmZxtuv/q+l+PBW2bFU9dOLWyriQcvT/vnxyo716tT/301hWPcHHcv+Fp86sb5hX1L9y9dr/72io9T2bGy21GnGgBKBJQBAAC6iFTyoikbtm2Pd7Zty9ca2tBMf71Rccr0fGLvZ+fF0jw7OQVXozRR+PTFcUMeNH0qTozvFvq+e9nimN0gkFoTD35jXkyZlV+nUZmL5o5XrjiPzdRYcNJlWcZzk9d59oa4Iq4v9s09PyYWq2SUWRgLFl2aneOFR48s3LdpWQmNUrbxlM8WrpdKWpSd64UnFbeNPP38OHNK4boXHFzsKFhz37WF85ldd3uvTSsFmhfExOmp7/qYeO3tdZOmA0BvJ6AMAADQRew3dFDsObB/jOjfr24Z3q9vvGv4kDhg2OAYWdafluoB/eIPCv07dfiJMfHaa+PqW+on+F6xZEH9ROUXz4qnlizL+o886ZgsUDxy4qRsvd6yeC1OjKOaKX3R3PHKnXnZpXHklEvjwrzecVPXWbN0cZx5XKm0xaEx5aN5s86hcf5nI24oXOeGJ/KuOpNiYnZ+Dc915NGF+19s7mDFkiib9Dzd3uJYmmUpT4spWZB6fEwozpMOABQIKAMAAHQR4wcNiCvevW98+dBJdctXD9svjhg5NAscf6msPy1fPGRSFmjeuUPjzMsinpp8foNayMWaxvmy0/rE42NCzIsnW6h9vNPjTTwjLjxpXnzqxvqazo2vkwLZd9fVfF4YC27Lm+XGnBGfT5nDDz3WTGmNhuea6kYvLTZ3MHbfKGZvZ9LtlYLSAEBTBJQBAAC6sKfXvB13vfZmtqT2rkpZun9Tl/kbcdAF10eUsoPTUhbkbdqoOOWzJ8aCafn+jeokV3q8NLnelXFRdv2xTV3n8AuL27O+m2Np4+zgZ2/It10US/Ns6h01PNcbHsq7mzDy9MtiykNT625vwqwLWzFhIQD0PlU1NTW1ebtVqqur81bbeHndurxFTzN31qy8VW/GjBl5CwAAupkvjyhefrE4Gd7ufpe55Dcvxbfee0C+1tC/Lloez721Pl8rOmzE0PjryePytYZaOlb3lCbHuz0mXtP9g7z7Dx9ebJSNnzR2Sv3lbQDoymQoAwAAdEEpI7kUTP7D6j2yJUl9aVuPlTKQS9nNKx+LBTEpxhbXAIAuQEAZAACgC3ps1dq8FdG3qvDlrbCUlG/rccpLXkybF1M+e0YzZS0AgM4goAwAANDFvLVla2zeXhtn7j0m/vd7Dozz99s7Pl5YUvvPJozJtqV9eqqDLihN1HdNg0kEAYDOJ6AMAADQxYzo3y8G9KmKu19fGf/fMy/Gza+8Hj8sLKn909dWZtvSPgAAHU1AGQAAoAs6ZnSxZnJTWtoGANCeBJQBAAC6oLMm7BmHjRiatZ9buz5+W1iS1Je2AQB0hqqampravN0q1dXVeattvLxuXd6ip5k7a1beqjdjxoy8BQAA3cyXRxQvv/hWdrG732W+9fvX4pX17+Rr9SYMHhgfn7RXLH9nU7yUbz9g6KCs1MUPF78RNZt3rKF8wLDB8XcH7p2v0ZXsP3x4sVE2ftLYKfWXtwGgKxNQpt0JKAMA0KO0cUCZ3kFAGYCeQskLAAAAAAAqIqAMAAAAAEBFukzJi9WrV+ctepq77rorb9VT8gIAgG5LyQt2gZIXAPQUMpQBAAAAAKiIgDIAAAAAABURUAYAAAAAoCICygAAAAAAVERAGQAAAACAiggoAwAAAABQEQFlAAAAAAAqIqAMAAAAAEBFBJQBAAAAAKiIgDIAAAAAABURUAYAAAAAoCICygAAAAAAVERAGQAAAACAiggoAwAAAABQEQFlAAAAdtnAvn1j1MCBsc/QobH/8OHZ5ejCeuoHAHoeAWUAAABarV+fPjF20KCYMGRIjBwwIPoX1pN0OaKwnvrT9rQfANBzeGcHAADYDVX5ZW+SgsQThwyJYf37x4YtEd//TcSHb4/4o+8WL9N66k/b0369PajcG8cIAD2XgDIAAMBuGNyvX97qPUYNGBB9qqpizksRH/xRxLcfj3j1rYjawrZ0mdZTf9qe9kv792a9cYwA0HMJKAMAALRG3/7Fyy0bs4vqAQN6VQZqqo1cykz+yryIjYXL5Ph9I574VPEySf1peylTubfWVE5jI42RTD5m0hhKwXcA6I4ElAEAAFqhduyhxcbLc7OLFCjde8iQGNKvX68ILA/Ls21vX9gwmPytPym202V5UDntlwztZVm6aSykMZHGRl0wPR8z2wtjaMv27UphANAtVdXU1OzSH0arq6vzVttYvXp13qKnueuuu/JWvRkzZuQtAADoXrY+8q3o94svRox/b8Qnfh7Rf3C+pXdJtZJTeYvkU38Y8fzKYjD5ksJDcsiYiO/+urhtnxERPzmn2O7VUnby9wsP0LLfxJYPfCnWv+/T8faWLTFx6NBs88vr1sX+w4dnbQDoymQoAwAAtEK/4y+J2hRMXvabYoDwd/fWlzLoRZbmweQkBY8fWVJsp8tSMDkp369XSmMjjZE8mLy9MHb6Hf8PsXbLliyDOVH+AoDuRIYy7U6GMgAAPcn22tqoXb0o+tz5iahKQeXe5u+eihi1f4MM5ZJUQ/no7+YruboM5ZqXI/7vkcXOXioFk2s/8v2oGbJ3lp28z9Ch0a9Pn9i8fXssXb9ehjIA3YIMZQAAgFboU1UVW0ZMivjUQ7H1A18uZiuXJurrDX57T3bxZwdnFztVt19+vV6nMDZSIDmVuagqjJkUTF63ZUvsOWhQFkxONmzdqp4yAN2GDGXanQxlAAB6ovVbt8bW7dtjcL9+0b9Pn14XENywJeKDP6qfmC9pnKE8uH/E/R+LGNKL4u2NpS/caQK+FDROZS62FdopmDy8f/FBSdtfXb8++lZVxYQhQ7I+AOjKBJRpdwLKAAD0VCmgnIKEKViYgoa79OWqGxo7aFAM698/5rwU8ZV5DYPKJSmY/IUTI047ILLyDiveeSff0vukPzakPzqkmsl7FB63UmZysrLwuKSM5VEDB8bIAQPyXgDougSUO8g//O61qNmyNV9r2ej+/eKbB0/I17o/AWUAAOi5Uqby7Qsjfvq74gR8E0cUy1ycc2jvzkzemfRF/M08mDywb1/ZyQB0G2ooAwAAtIE0WV9vylIuSUHjT7y3OPHerz5VvEzrgsk7SmMjTcC3ZvPmrMxFKZicMr4BoLuQodxBZCg3JEMZAICeKgULU33lzdu29YrgcgqIDuvXLyvnkMo6pKB6uv9p2VR4DNhRKoExoPC4DS08ZspcANDdCCh3kntWvhV3vLEma5+918j40JgRWbsnasuA8tq1a2OPPfaIJ554Ip5++um8t/54N910U3aZdETf//yf/zOqqqoq7vu3f/u3qK0t/pOrtO8Tn/hE9Cl8MK+07/vf/35sL3yI78y+v/qrv4q+hQ/ITfX9+7//e2zLv1jsTt9f/uVfRr/CB/CO6PvBD34QWwtfiFrT9/GPfzz69+9fcd8Pf/jD2LKlWHyws/rOP//8GFD4QtNU38033xybC1+Od7fvYx/7WAwcOLDivh/96EexadOmDuubPn16DBo0qOK+W265Jd7J60HuTt95550XgwcPbrLv1ltvjY0bN3Zq37nnnhtDhgypuO/HP/5xbNiwocP6PvrRj8bQoUMr7rvtttti/fr1u913zjnnxLBhw5rsu/322+Ptt9/u1L5p06bF8OHDK+6bNWtWrFu3rlV9Z599dva+XGnfHXfckb2Xd2bfRz7ykRgxYkSTfXfeeWe89dZbu903derUGDlyZMV9s2fPjjVrip8LO6LvrLPOyj7LV9qXPsuVPqt3RN+HP/zhGDVqVMV9P/nJT6LwnWa3+/7iL/4iRo8eXXHff/zHf8SqVas6rO/P//zPY88996y47z//8z/jzTff3O2+P/uzP4sxY8Y02ffTn/40Vq5c2al9Z555ZowdO7bivrvvvjtWrFjRqr4PfehDsddee1Xcd88998Qbb7zRYX1/+qd/GuPGjau472c/+1ksX768U/vOOOOMGD9+fJN99957byxbtmy3+04//fTYe++9K+6777774vXXX++wvj/5kz+JCRMmVNz385//PF577bXd7vvgBz8YEydOrLjv/vvvj6VLl3ZY3//4H/8j9tlnn4r7/uu//iteffXV3e477bTTYt99922yb86cObFkyZJO7Tv11FNj0qRJFfc98MADsXjx4g7r+8AHPhD77bdfxX2/+MUv4pVXXmlV3ymnnBKTJ0+uuO/BBx+MRYsWdWrfySefHPvvv3+TfXPnzo2XX355t/ve//73xwEHHFBx3y9/+ct46aWXdruvqvDBqBiNaqX0wa8tlT4Y9hYCysXgbGvNmzcvTjzxxHwNAAAAAOhIaijTLaS/5KS/XgsmAwAAAEDnEVCmW0g/00k/eQAAAAAAOo+AMt1CqsOaao4CAAAAAJ1HQJluoXyCOwAAAACgcwgoAwAAAABQEQFlAAAAAAAqIqBMtzBjxoy8BQAAAAB0FgFlAAAAAAAqIqBMt2BSPgAAAADofALKAAAAAABUREAZAAAAAICKCCjTLZiUDwAAAAA6n4AyAAAAAAAVqaqpqanN261SXV2dt9rG6tWr81bvcM/Kt+KON9Zk7bP3GhkfGjMia/dEd911V96q19qM4zQp3+5kKW/ati1Wb94cG7dujV0a8PQ4VYVlcL9+UT1gQAzs27fY2Y6MQRozBulsxiCdzRiks3X0GASAnkKGMj1e+vLw+oYNscGXB8qksZDGRBobaYy0J2OQphiDdDZjkM5mDNLZOnIMAkBPIqDcSVJG8g8Om5QtPTk7uStImSi+ONCcNDbSGGlPxiAtMQbpbMYgnc0YpLN1xBgEgJ5EQJluYXfKXaSfNUJL2nuMGIPsjDFIZzMG6WzGIJ3NGAGAygko0+PJRmFn2nuMGIPsjDFIZzMG6WzGIJ3NGAGAygko0y2kSfkAAAAAgM5VVVNTs0t/jK2urs5bbWP16tV5q+eouX9mnPP1x/O1gvd9Jm6/6vQYla827/m4cebiOLuifbu+u+66K2/Va20JixRQ3tWyFy+vW5e32saXFi6ONVsq+0lc9YB+8cVDJuVrdGX7Dx+et9peW43BLz+/uNnx9O0XX48/23t07DNkYN5Dd2MM0tm68hjctH17LH9nc0waMijvKdpc6N+4bXu+Vpk9+veLqrxN19IdXgdLfB7smdpzDAJATyKg3AGe/97MWPwXV8XpY/KOnRJQbkxAmfbWlb/E3vvi4qyu38PvRBzZZ0sse3tDvqVo+ID+sWXEqNi/X8SqteviE0e8K99Cd2IM0tm68hj86vNLYtXmLXHK2JHZHy6SFEz+X88savXP1Ef07xdfPtR7c1ckoExnE1AGgMooedGhauK+mafFaael5cZ4PnU9d+MO7cfuvyXufPybcc73sl4KdmdSPuju5rz8ajy17M04cOigeGpFTfz2zdUNlmdXrIpxA/vHopo18dDi1+KtTWYpp20Zg3S2FExOVmwqXiYpM3lXsiLeqjAICAAANE2Gcgeoy1B+48aY+drZcdUHR0WsvC9m/sekuOqThxQDyfMjPjIr4oQ5F8QhMpTbVFtnpDT2wBur455lNVn7Q+NHx6l7jczadC9dOSvqi3Mfa1WA7ssnHxMjBg7I1+guuvIYvOT+h2NNK8bgP3/wBGOwG+rKY/DRVWtjyYZNcfKYEbHXoPqxNb/Q39oA8djC2Dyqeli+RlfSnTKUG/N5sGeQoQwAlRFQ7gClgPKUJ5urqZwyl8+JR068vRhsFlDeQVcqedFYh36BePaGuHrpOfH50ysdGQvj5ssXx5nXnBG+1rSsS3+JXbUqYnsraoSOHh3RZ/d/gPLCjSfHFbdNiyvnXhhR1j4o307bMgZ31G3HYKtfq7uG7hzMo2cQUK5QJ3weXHPf5XH3xGvi/MPzjl1SOI+TL4q7s3bXfD0XUAaAyih50cHe97nbY86cOcUlDxjX3P+NeOTEf47j530j7ltZ3I/e48HLT46bn81XkpX3xtUn3xAv5Ks7lz6cXx4P7ubYSV8Upp18crZcfV/xC1FrZNe/cWG+ViZ96an4eOkLz72xJmp2fFxo4LXXXoulS5fucLlr0hgqPvfZkj0HC2PBokvju9mXvfJ2heqe990bn+XjsjQeUl/lYyONpR3/PaVAZd39reTfW6vGce/QO8ZgU+e1qxodq6nXy0ZaN9Z7vu21u5QDUZH0nlP33BSWun/vzy5s4vWhJl54tv71oOHrSeOxVv687/57NT1XV/o82DavO/Xvv3WfEVcujqUfvT5mzZ0b371scSxo5e3UnVvh9X33Xo8BgN0loNyBRn3ws3H8vHPyGsqFZeZ98dj3TotzlkyPqz54SJx+yfHxyHkzBZV7mVM+e2ksfbQ+sLDmiXkRl53TioyNQ+P8udfEKRVP+ti8M6+bW/iQPzumPHRtq7+QjDz9mph1waH52u4aFadcM3c3s2B6lo0bN8aGDRvi6dXr4jer18aQIUNi6NChO1zusikpWJee/8LSphntuzM+F8bdD52Yn9fsmHBLa75Y78yU+JtZ+f29LuIKgZ6d6p1jsKAtz6vsWFfGRQIirfCdl5bFZ55+OeatfCvvKfrGC0vjkt+8lC1fXLi4xaW03/dfWZ5fu156z5k19/o4M3+OSpmfa5beHLMb/zHp2dvjikeX5StJ2etJU2Ot9LzPOjEW3LXzPyTQO3Wlz4Ntre4z4vLFEfuOr+vb5c95h1/Yxu8TAEBrCSh3gEM+eVWcnn24GxWnX5VnJ+cZysd8snCZ6ignY06Pq+akfQ+JC3pIuYu20qMn5RtzTExZdHMezFoYd187KaZmX2TLsprKgw4PXZtnOpWCa4X9StuzbJYmrpNp5ngtavo69dlYl8fVZdknpYyW0var73s5HrxlVjx17dTCtpSpkvbPj1V2rlen/sIX9jX33Rx3L/hafOrG+WVZpcVs5dLtFR+nsmNlt9PzM0fXr18fq1atikdWrIpZi5fFW4X11JcCfOWXJa9v3Fw3idWuqHsuCuPsybL2CzsdEynDqvD81D3v+fgszybKnvvic5llLdVdLztUmfExIebFk9lznv7IUMxUvfvaBXH3xcXrNzUWs8zUwvjIjvmft8d3FsyKK8rOdQfpi+l1k2LBE6WMxMK55ueUjtPw/jTa3gvGXknvHINNSccrjLfG1yl/Tbtlcd7ZvIMumBtXTi6N77LXuey1LZ1n+Vgv21732t+7/Hbdhuxy4driZZJqJ7+6YVO+VlxvaSl5ek39ON2ZFUsWFMbR7WWPeXFsxaLFzb+mtCS7XlPPZ9m4unFh/bgsZbKXve6U95Ve63rruOhRuuLnwbJxd8NDed/Oxm9hKb5X1r//Lsk+Ixb/7aTX5dIYr3v9bGJ87/j+Xvaa+HDZr4aavK9NnA8A0KYElKHTjYpTpufBrGfnxdI8GyUFUyLLGC4s0xfHDfkH56eimLGZfirYMGuq8EH9G/NiSilLqlHmRnPHK3f3xemD99RYcNJlWYZLk9cpfOi/Ioo/V5w19/yYuCC/cp3ST9PnxoVHjyzct2lx5GWz67JQpny2cL1rjokny871wpOK20aefn4xO+yCg4sdBWvuu7ZwPrPrbu+1aaUvLwti4vTUd31MbPBlv2c7u3pIXFA9KPpXVeU9Tbvx5WXx1eeXxMznXonbXl0Za7dsy7c0IwvW5V/ICl/m6p6LuRfGUWXtsTsdEymzPI3phs97CtqWgmfFrKs0xgpfDlvMQE5B5MsivlE8r+KXx0PjzMumxJnXXROnLG9+LD41+fziufz5OfE3U6bFlTvLZBo3KWJJyjgsfAm9OOLK/L5MnZwOWn5/0hfisu1LWp/N3931rjFY0Oi8in2F17L0+jXr0lh6SwpgNHz9Lb2m7czYfSNeW97ode6zJ+Zby8f67fXbZ02K2aXz6EVOHDMiJgweWLjcI++JGNG/X9ZfPaBfHLrH0IqWMQP7x//Yq9J5QGpi6aJpceZHZ8UV+WOenqvvpJeFBYtjRdaTLIjvTMvHSFOB3dIYmlYYI58tvBY928zzuWBSTE19F4yPJx+aVHydOWt8YXw1fF367r431wXTmv9MQPfTdT4PFjX1fljQ7Pht9Lp4eP37b/Ffbf3rcsNftDW8nWxbk581y14T6+5Qo/tauD+favZ1GgBoSwLKdAtpUr4e7fATY+K112ZZbVOOLuamp6yoYoC3sFw8K57Kgl0RR550TPbFYOTESdl6vWXxWuHLxVHN/NSxueOVO/OyS+PIKZfGhflPfZu6zpqli+PM40pfBA6NKR/Nm3UOjfM/G3FD4To3PJF31ZkUE7Pza3iuI48u3P9icwcrlhS+EOSPSfH2FsfSLIA3LaZkgaLxMWFKuuzZ+vfvH8OGDYsBAwbEHnvskU2MOmrUqB0uSz68x4C4aM+hccqQfvFUzbq49nevxpubWsgWzYJ1+ReyFkqX7HxMNO+g49IX5YVZoCTLukq1FOuCdVPjOwtKz225FFQunlfj4G1LY/HI/Ce1FSv9DDer73hi3U+MDzpuWt4qKYzdlHGVnXOaJG5BFhDsDXrtGGzqvKbkr19jCq9pWUflr2nl0uvbhHGNXudSluLkYrMk3b8sqy+d57SvxVO7mh3bjZ01Yc+49OCJWVC4XOr/4iGT4pP7j6tomfnufeOM8fXjtGXpeZ0UZ15wfZx5W8ocLWZInnnd7PibKeVjpbzkRRN1vuvGULEcQbPP55RJMTa7QnrdOzEWpO13LYuRjV6X0vgq/gGspc8EdEtd5PNgppn3w+bHb+PXxQo1up2kpff3hhrd18Ljd+bung8AUBEBZegSUtZFMauyvPZdsaZxvrQQYCkqLw/QtJ0eb+IZceFJ8+qzOwoaXyd9cbm7rsbfwlhwW94sN+aM+HzKHH7oseKH+h00PNeULdjcVF4pg6+uFEF2e6WgdO+yZcuWePvtt2Pz5s1ZWYFUr7appWRrbW2M7FsVHxg+MD6/19AYFLXxg8Vv5Ft3T8tjogWHnxNTHrooFpxUVhOyPFjXqPZj9pPvurGYMgXzZq6isViJ9HPZi/Mv7+mL523z6jIMX3h0Vt4ql2amr38Mekut7944BitX+WtaSRrfVywqBjwavM6tfCwWNBrrSZbVVzpPtUM7Rgp0TZ5UeKyL79HfmXZR3P3R67MM+ImTd++PSTt/PlM93NnxN4sKr0eNXpeyDPvW/tGMbqKLfB5MWng/bNPXo0a3k1T+/t7ovj47L+7O/s0CAO1NQBm6iJRx9DdlGXYHXXB9RCmDJC1lQd6mjYpTPntiLCj97LZRXbxKj5cmSSlNFjW2qeukn42n7VnfzbG0cXbws6U6eBfF0jx7ZkcNz7W+Lt+ORp5+WUx5KM+EKdzehFlNZH/1dFVVseeee8Y+++wTY8eOjYkTW861qS0sb2zZFm9s3Z6tj+zbJ/6yenBWa/TpNW9nfTso/1l/CzUVmxxHDcZES7UK089dr89rQhaMyf+AUTpWXY3sorqxmG2rL8VSZ2djsUVlP1Gftjim1gUSD43zs0n6ittmL2p80Ibb09IrajP20jGYqei8KnxNKzvWp5acXxeIafA69415xX3LNHwdbOk8eq67Xnszvva7pbFwbcP6x6n/y88vju+9vLyi5ar/XhL3LmvuJ/4NlQdu03OQ/Xw/D76lbM2lS0vHKS950cQYamSnz2ddTdip8Z3JKXOz4etOGjulSQPpebrK58Hm3g/b/vWo0ftqJZ816zS6r7dMiu/uNOAOALSFqpqamvS9r9XST1vb0urVq/MWPc1dd92Vt+p15CR7L69bl7faxwNvrI578i+nHxo/Ok7dqzflRdTEg5ffHhOzydK6t/2HD89bbW+3x+C2bcWlElVV8eKadfHi2g2xz4C+ceigfvmGiG+uXB97DRsS0/ct/qiarsUYpLN15TF4yW9eyi4PHj4kLjygGORNE+19ceHOJ0Bsyrfee0Deoivp0q+DO9G7Pw/2HO05BgGgJ5GhDLROykAuZbOkn2ZHqeYj7aZv34gBA5pc1vfpG9cveTMeX7E6Xlu1Jt6qWR0HRtOBv336942lGzbla9AKxiCd7F3Di+VUDt2jvqxKmpRvnyED87XiektLyeShg/IWAACwKwSU6RZ6/KR83Un5zxBLM9bnm+h4fVM26Nsbo//2bTGhX1WM6FOV9R88qF/8Yt2m+NnaTbF+e/GHKP0Lm1JdW2hLxiAd4W8OGB/fPGL/OHHMiLyn6LMHTcyyjdPy5UMntbiU9vv7P5iQXxsAANgVAspAqx10QWkyl12dwIq2Mqhvnyzz7uVNDTNCJw/oG383ZmhM7N8n1m4rBvBeLOyz9+ABWRvaijFIR+lTVfxjBQAA0LkElAG6uWNGD4/5GzbHqm3FCdBKUujliMH9Y3z/PvHrDVti6ZZtcfyeDbP7oC0Yg7S3R1etjdteXRlvvLM57ymaX+j/+fKaVi1Prm5mYkgAAKAiAsp0Cx05iR90Nx8YOzL26N8vbnxzQ6zY2jCglzyzcUvMWvNOHDlyWPzBsMF5L7QdY5D2NuvVlfHYqrVxdz7pWZIm5bu90P/z5atbtfxw8Rv5EQAAgF0hoAzQzQ3o0yc+uf/42BBV8X9WvB23rt4YP1+3KX6+dlN8+80N8W81G2Pi0EHx0X3VJ6F9GIO0t9ED+meXYwcWL5PBfftkWfCtVT5BHwAA0HpVNTU1uzQ7TnV1dd5qG6tXr85b9DR33XVX3qrX2ozjNCnfrmYpv7xuXd5qHw+8sTruyTOmPjR+dJy6lynquqP9hw/PW22vvcdgyTvbtsdDK98qLGtiQ156YPygAXHK2JFx9KjhuxR4oeMYg3S2rjwGN23fHsvf2RyThgzKe4o2F/o3Niq1sjMpm95Y7Jq68+ugz4M9Q3uOQQDoSQSUaXc9PaBMz9ATgnl0b8Ygnc0YpLMZg3Q2AWUAqIySF9ATPXtDXH1ffZ1JAKAt1MSDl98QL+Rr7c77ObvD+AEA2omAMt1Cz56Ub2HcfPm9sSZfq+NLAAB0kMJ78cknx7Rs2b2A8Zr7Lo+bny00Cu/j05p6f99t6VwvjwdX5qv0ED4PAgDdh4AydAULvhafapcvnQBARaZcGt+dOzdmXRdxxY0L887dcPiFMeuaM6LtK+keGufPvSZOMcdlz+PzIADQTQgo0y2kGso9WvoSO31xM18iyn9eW8peSX2Xx9WXp0yqy+PB+27YMatqye1xdZ5tVZ/ZUpaBVXdb6ZiFY6W+tvgCDQA9RMo2Lr6/nlzMOm7khRvz99TCe/HV2Xv1wrj72gVx98WF9+aHyzJLU7Zyfpy699qUeVp4/y32179/l45Zd92Hrm20T/lngRvi5rpzaOEYdA8+DwIA3YSAMnQVKZOp2S8RTZvy2bkxa9aJseChSVlW1ZUfnRUL8i+8Ty2aFBemTKu5s2NK4cto+mnsmvtujrgu9RWWwm3dUPpisWBSTE19FxxaXAeA3iZlh6Zg2sURV2bvhwvj7odOLGYtF95LJ9xSFqRLnr0hrojri++pc8+PiQtS56Fx5mVT4szrrolT6lKTF8bN6ZjZfnPju/veXBfYeyqKx//uZYtjdta3MBYsKmZKX3h0tksT+5SbFXFc8bj1mdU7HoNuxOdBAKAbEFCGrqRVXyImxcTSz10nT8p+Ujt23ynF9YIjTzom/5ntqDjqpIjXlkesWJKypvKMlItnxVNLlmV7xJRJMbbYAoDeacql8TcfjTjzugvjoLS+cnEsLQWZT54a31lQWC+rW7xm6eI487hS4O3QmFK4bpPScT56YvGYBSOPPjEif/8tvVePnDgpW8/KWXw24obCbd7wRLFnx33KTYsph+fNw0+MMxctLnx+2PEYdDM+DwIAXZyAMt1Cz56Ur5HSl4jCB/yiUTFxcsMvsZV46qHH8i8hNfHkQxETxmUrhS/KeUaKDBQAaOCoC66PSOUqSu+5pbrK2dKwbnEK8N79aKk0wMJYcFvebGzMpJh427y67OY1T8yL2Hd8vtaEMWfE5+deHxPr3sdbUp+JGs/Oi7vzgGLrjkGX5PMgANCFCShDV5S+RFw3LV+JOOisE2PBtJRJclHE9Mom+Dmy8KUjZSelrKoFJ12WfQk+KPuinGekpEWNPAAoc2icn0oHFN5zb15+Rlx40rw8QzktZYHmpPBefWVclG+7OZbWJ4U2UjhmKkeRH+dTS86Pz58+Kt/WSF2t5YtiaV1maUsKnxUezc+vVKqj1cegy/J5EADooqpqampq83arVFdX5622sXr16rxFT3PXXXflrXqtzThOk/Ltapbyy+vW5S1o3v7Dh+ettmcMUgljkM5mDHY3aUK222PiNXmJjh7AGKSztecYBICeRIYyAAAAAAAVEVAGAAAAAKAiAsp0C71qUj4AgJ0aFaf0oHIXAAB0HwLKAAAAAABURECZbiFNygcAAAAAdC4BZQAAAAAAKiKgDAAAAABARQSU6RZMygcAAAAAnU9AmXY3evTovFXUeB0AAAAA6B4ElGl3Rx55ZF0QOV2m9dYyKR8AAAAAdD4BZdrdHnvsESeddFKcddZZ2WVa70hV+SU0p73HiDHIzhiDdDZjkM5mDNLZjBEAqJyAMj3e4H798hY0rb3HiDHIzhiDdDZjkM5mDNLZjBEAqJyAMt3C7kzKVz1ggIwDmpXGRhoj7ckYpCXGIJ3NGKSzGYN0to4YgwDQk1TV1NTU5u1Wqa6uzlttY/Xq1XmrZ6nZsjVWbN4aBw4ZGP2qquKtzVviwaXLY3ttbRw4YngcsWfDx3HT1m2xcMWbMWGPYbHXsKF5b8/T1uNnZzZt2xarN2+OjVu3xi4NeHqc9MUhZaKkLw8D+/YtdrYjY5DGjEE6mzFIZzMG6WwdPQYBoKcQUG5H22pr4ysvL49XNm6O6941MYb0qYpPz/tVvLHhnXyPiD8ePyYuO/KQrH3bM/8dtzy9MFZt2Jitjxo8KD5/0rHxx5MmZus9SWvHT5qUb3eylAEAAACA3afkRTu5etEbcekLr2fB5JI5ry7PgsmHVI+IL/zR4XHMuD3j/y1bGY8UlrWbNsUNC56M0UMGx8Of/FjMfP9xUbPxnbjp18/k1wYAAAAA6FwCyu3kXUMHxgnVQ2NEv/qfTr341rrs8tOHHxR/OGZUnDh+bLb+uzVrs1IXHz/ysPi7Y/4w+vapiiPGFbet3lifzQwAAAAA0JkElNvJh8eOzJbygPLF7zk4/vOMk2LisCHZ+tOrimU+9ujfP8YMHRIzjj4i/nDCuKzsxaU/n5tt+8ABk7LL3k65CwAAAADofALKnSAVrZ790qtx/5Jlsc+wIfGn+00obsg998absWzd29Gnqir2HFIMPgMAAAAAdDYB5Q62fsvW+NLjz8QPf/dyHDhieFxz7JExpCyLObn6f5wUPzr7zOhbVRXXzX+ibpK+3ixNygcAAAAAdC4B5Q60efv2uPTRp7KayR85YN/42nFHxrD+/bJtjy99PT790/+K+154OVufOGJ47Dm0mJ28blP9xH4AAAAAAJ1FQLkD/XTR0nht/YYY2q9f/Hb12vjHBc/EzMeejjmvLou9hg2Np5a9Ef93/q/j5y+8HNfMeywre7H3HsNi35F75EcAAAAAAOg8AsodaMEbq7LLN9/ZFM/VrKlblm94JyaNHBF/O+WoWPPOO/GVuf8vfvrfv4/+ffvG546fktVS7u1MygcAAAAAna+qpqYmzRHXatXV1XmrbaxevTpv9W4pK3nZuvVZe+/hw2Lc8KFZu6dp6/EDAAAAALQ/GcpdzPjhw+KovffKlp4aTN4VJuUDAAAAgM4noAwAAAAAQEUElAEAAAAAqIgaynQKNZQBAAAAoPuRoQwAAAAAQEUElOkWTMoHAAAAAJ1PQBkAAAAAgIoIKAMAAAAAUBEB5TZQc//MuPG5fGUHNXHfzBvj+XyNXTNjxoy8BQAAAAB0FgFlAAAAAAAqIqDcpp6PG2fOjJmnnRanFZYsa/m5O+Kbj98Zfz/zvqhJ2/Ntp2XrRc9/L+87rXDdumzmpvYtO/73elfOs0n5AAAAAKDzCSi3tccjjr91Tsy59TOx5Mf3Rc1hZ8dn3veR+OerTo+4/5aIfypsm1NYzl0S37i/JuK5G+Pv45+LfXOmx76F6yc1Te2bPL5vTE99nzykuA4AAAAA0EEElNva+46PKWMKl2Mmxb7FnjrLlzwed/5DnnX8D3fG40uWR81rS+Ijx5aCw4fECdOKrab2zbxv3xhXbAEAAAAAdCgB5Q72kVLWcZ5lPGrCvnHn/FL5iufj4Vl5s6Dxvr2ZSfkAAAAAoPMJKHegQz75zxGlrONSHeTDLoh/jr/P+26JJe9rYV8AAAAAgE5UVVNTU5u3W6W6ujpvtY3Vq1fnrd6sJu6beUdMuuqC6On5yK0dP2lSPlnKAAAAANC5ZCh3tudurM8+XrkgHgk1kgEAAACArklAubOVl7w475E4/pLTY1S+CQAAAACgK1Hygk7R1uMHAAAAAGh/MpQBAAAAAKiIgDLdQpqUDwAAAADoXALKAAAAAABUREAZAAAAAICKmJSPTmFSPgAAAADofmQoAwAAAABQEQFlugWT8gEAAABA5xNQBgAAAACgIgLKAAAAAABUxKR8dAqT8gEAAABA9yNDGQAAAACAiggo0y2YlA8AAAAAOp+AMgAAAAAAFRFQBgAAAACgIiblo1OYlA8AAAAAuh8ZygAAAAAAVERAmW7BpHwAAAAA0PkElAEAAAAAqIiAMgAAAAAAFTEpH53CpHwAAAAA0P3IUAYAAAAAoCICynQLJuUDAAAAgM4noAwAAAAAQEUElAEAAAAAqIhJ+egUJuUDAAAAgO5HhjIAAAAAABURUKZbMCkfAAAAAHQ+AeVO9NY7m+LTP/2v+PEzz8eWbdvif93/yzjz5jvjZ797Kdv2d/fMiQ/fclfMf/W1/BoAAAAAAJ1HQLkTDRnQP941ZnS8+ta6+MVLi2PF2+vjXz98elw3/4n46W9/H4P79YtLT5gS3338N/k1AAAAAAA6j4ByJ+rfp0/sM2J41NbWxsoNG+KPJo6PvYYNjT2HDI7X176drR89YVwsXrM2v0bvNWPGjLwFAAAAAHQWAeUuYt8Re8TzK96MFes3xJp3NsWBo6pj4RtvxtPLV8SkkXvkewEAAAAAdB4B5U42ZuiQ2HfkHnH8pH1ij4EDY8Zd98anjzkqPnjQ/vHWpk3xv385Pz71vvfme/deJuUDAAAAgM5XVVNTU5u3W6W6ujpvtY3Vq1fnrd4llbvYunVr9OnTJ/r27Zv39nytHT8poKzsBQAAAAB0LhnKnWjLli2xZs2aePvtt2Pt2rWxcePGfAsAAAAAQNcjoNyBarZsiyXvbI7VhcskBZCXrN8YFz6+MB5Yvireeeed2LatuI2GZCcDAAAAQOdT8qIDzK1ZFw8UlqXvbMl7IvYZNCA+Prxv/MvvFsdf7T8hZi1eFqeMGx3vnzQx+vXrl+/Vc7X1+AEAAAAA2p8M5Xb2vaWr4t9fr2kQTE5efWdzvFTo+vyh+8ekoYPjc4fsH0eMGtErgsm7wqR8AAAAAND5BJTb0ew31sQja97O13Z025qN8auNW+Od2ogB/ftH9fDh+RYAAAAAgK5HQLmdrN26LX668q2sPbhvn/jq4QfE/9x/QrZ+7OgR8b/fc2AcMXJ43LHmnbhi2broO2SI7GQAAAAAoEsTUG4nz7y9MW9FbNy2PV4qrP/5hDExYfDA+KvJe8e4QQPjubeK2ctba2vjmXX1+7Mjk/IBAAAAQOcTUG4nKzZvzVtFs159I97esjW+dNgBMX7wwPjR4mWxrbZ+PsTG+wMAAAAAdDUCyu2kf1VV3irasHVb/HjJG7HXoAGxdMM7MfeNmnxLUeP9acikfAAAAADQ+QSU28mkwQPyVr0t27dnlz9avDzqc5OLmtofAAAAAKArEVBuJ+8ZNjj2Htg/X4voV1UV5+w7Ll5ZvzEefXNN3lu076AB8e6hg/I1AAAAAICuSUC5HZ0zrjpvRRw6Ylgsf2dTfO/l1/KeeueMG5m3aI5J+QAAAACg81XV1NQ0rr5Qkerq+mBpW1i9enXe6lkee2t9/PvrNbFxW7HcRblhffvEX00YHX+0x5C8p/do6/EDAAAAALQ/AeUO8Pa27TG3Zl38dv07sXbr9hjRr2+8e9igOLl6WAzp2zuTxFs7ftKkfLKUAQAAAKBzKXnRAVIm8pljRsSl++0VXz1wfHxuv7Hxp3vu0WuDyQAAAABA9ySiCQAAAABARZS8oFOooQwAAAAA3Y8M5S6i5v6ZceNz+Uqdmrhv5o3xfL4GAAAAANCZBJR32/Nx42mnxWml5XvCv+0hTcoHAAAAAHQuAeW28L7PxO1z5sScwvLP8fdx2sz7oibfBAAAAADQUwgot7FDPjkn/nm/R2LByrSWSlaUspdnxn11faUyFs/HjeXB5/k31mU671j+oiwTWsAaAAAAAOgEAsrtYNy+EUveSHWRvxGPnHh7lrk8Z870WHJey/WQ74wT8n3/OeIfGu5bc/8tEf9UzIKec+6S+Mb9vSukPGPGjLwFAAAAAHQWAeV2sHxJxL57FS+PP2pU3ntInDBtSSzOspSb9pFjD8lbO+67fMnjcec/5BnK/3BnPL5keb4FAAAAAKBjCCi3sZr7Z8bfv3J8TBlTzFR+5MlSJvHz8fCsfWPSmFExab+mA8t3zi/lJJf2zVdzHyllKKflk6Xgc+9gUj4AAAAA6HwCym3h8W/GOXl943OWTI85V50eKS951Ac/G8fPOyevi3xL7HvrBZHCwIf8xfHxyHmp7+8jzi3um3wkHs73LfT/U3HfkkM+mcpgFG8jW77XUvEMAAAAAIC2V1VTU1Obt1uluro6b7WN1atX5y16g9aOn5ShrI4yAAAAAHQuAWU6RVuPHwAAAACg/Sl5AQAAAABARQSU6RZMygcAAAAAnU9AGQAAAACAiggoAwAAAABQEZPy0SlMygcAAAAA3Y8MZQAAAAAAKiKgTLdgUj4AAAAA6HwCygAAAAAAVERAGQAAAACAipiUj05hUj4AAAAA6H5kKAMAAAAAUBEBZboFk/IBAAAAQOcTUAYAAAAAoCICygAAAAAAVMSkfHQKk/IBAAAAQPcjQxkAAAAAgIoIKNMtmJQPAAAAADqfgDIAAAAAABURUAYAAAAAoCIm5aNTmJQPAAAAALofGcoAAAAAAFREQJluwaR8AAAAAND5BJQBAAAAAKiIgDIAAAAAABUxKR+dwqR8AAAAAND9yFAGAAAAAKAiAsp0CyblAwAAAIDOJ6AMAAAAAEBFBJQBAAAAAKiISfnoFCblAwAAAIDuR4YyAAAAAAAVEVCmWzApHwAAAAB0PgHldvb7DZtizdZt+VpDW7fXxr2LX4/ZL70aL731dt5b9OwbK+OFN2tie+0uVSQBAAAAAGhzAsrt6JE1b8eVLy+Pp9dtzHsa+s7CF+LGhb+PH/7u5fjM//t1/HTR0qz/n/7fr+KC//h5/NXsn8XpP5gVv3ptWdYPAAAAANCZBJTbyV8+tzi+t3RV1m4qyXjNps0x59Xlcc4fTIo7/uSEeHf1iJj98quxedu2mL3wd/G5498Xcz7x0ehb1Sduffr5/Fq914wZM/IWAAAAANBZBJTbyQ8OmxRfOmB8vrajQf36xlVTjogPT94nBvTpE1WFvr5VVTGgb9945FMfiz9/90Hx3ytXxdbt22PkoIHFKwEAAAAAdJqI/x8VhUAWO46gxwAAAABJRU5ErkJggg==;" parent="1" vertex="1">
          <mxGeometry x="151" y="230" width="798" height="234.71" as="geometry" />
        </mxCell>
      </root>
    </mxGraphModel>
  </diagram>
  <diagram id="zI3tGI3zkx2YVBJHWv30" name="Page-3">
    <mxGraphModel dx="1434" dy="790" grid="1" gridSize="10" guides="1" tooltips="1" connect="1" arrows="1" fold="1" page="1" pageScale="1" pageWidth="1100" pageHeight="850" math="0" shadow="0">
      <root>
        <mxCell id="0" />
        <mxCell id="1" parent="0" />
        <mxCell id="dVfjUr-iWaCOCzDGDX7t-1" style="edgeStyle=orthogonalEdgeStyle;rounded=0;orthogonalLoop=1;jettySize=auto;html=1;" parent="1" source="dVfjUr-iWaCOCzDGDX7t-2" target="dVfjUr-iWaCOCzDGDX7t-19" edge="1">
          <mxGeometry relative="1" as="geometry">
            <mxPoint x="610" y="200" as="targetPoint" />
          </mxGeometry>
        </mxCell>
        <mxCell id="dVfjUr-iWaCOCzDGDX7t-2" value="Person CSV" style="rounded=1;whiteSpace=wrap;html=1;" parent="1" vertex="1">
          <mxGeometry x="440" y="170" width="120" height="60" as="geometry" />
        </mxCell>
        <mxCell id="dVfjUr-iWaCOCzDGDX7t-3" style="edgeStyle=orthogonalEdgeStyle;rounded=0;orthogonalLoop=1;jettySize=auto;html=1;" parent="1" source="dVfjUr-iWaCOCzDGDX7t-9" target="dVfjUr-iWaCOCzDGDX7t-2" edge="1">
          <mxGeometry relative="1" as="geometry" />
        </mxCell>
        <mxCell id="dVfjUr-iWaCOCzDGDX7t-4" value="Delta EGRESS" style="edgeLabel;html=1;align=center;verticalAlign=middle;resizable=0;points=[];" parent="dVfjUr-iWaCOCzDGDX7t-3" vertex="1" connectable="0">
          <mxGeometry x="-0.0111" y="4" relative="1" as="geometry">
            <mxPoint as="offset" />
          </mxGeometry>
        </mxCell>
        <mxCell id="dVfjUr-iWaCOCzDGDX7t-5" style="edgeStyle=orthogonalEdgeStyle;rounded=0;orthogonalLoop=1;jettySize=auto;html=1;entryX=0;entryY=0.5;entryDx=0;entryDy=0;" parent="1" source="dVfjUr-iWaCOCzDGDX7t-9" target="dVfjUr-iWaCOCzDGDX7t-11" edge="1">
          <mxGeometry relative="1" as="geometry">
            <Array as="points">
              <mxPoint x="110" y="330" />
            </Array>
          </mxGeometry>
        </mxCell>
        <mxCell id="dVfjUr-iWaCOCzDGDX7t-6" value="EGRESS" style="edgeLabel;html=1;align=center;verticalAlign=middle;resizable=0;points=[];" parent="dVfjUr-iWaCOCzDGDX7t-5" vertex="1" connectable="0">
          <mxGeometry x="0.3333" y="-5" relative="1" as="geometry">
            <mxPoint as="offset" />
          </mxGeometry>
        </mxCell>
        <mxCell id="dVfjUr-iWaCOCzDGDX7t-7" style="edgeStyle=orthogonalEdgeStyle;rounded=0;orthogonalLoop=1;jettySize=auto;html=1;" parent="1" source="dVfjUr-iWaCOCzDGDX7t-9" target="dVfjUr-iWaCOCzDGDX7t-13" edge="1">
          <mxGeometry relative="1" as="geometry">
            <Array as="points">
              <mxPoint x="110" y="80" />
            </Array>
            <mxPoint x="230" y="80" as="targetPoint" />
          </mxGeometry>
        </mxCell>
        <mxCell id="dVfjUr-iWaCOCzDGDX7t-8" value="EGRESS" style="edgeLabel;html=1;align=center;verticalAlign=middle;resizable=0;points=[];" parent="dVfjUr-iWaCOCzDGDX7t-7" vertex="1" connectable="0">
          <mxGeometry x="0.2" y="-1" relative="1" as="geometry">
            <mxPoint as="offset" />
          </mxGeometry>
        </mxCell>
        <mxCell id="dVfjUr-iWaCOCzDGDX7t-9" value="INFA MDM" style="rounded=0;whiteSpace=wrap;html=1;fillColor=#ffe6cc;strokeColor=#d79b00;" parent="1" vertex="1">
          <mxGeometry x="50" y="170" width="120" height="60" as="geometry" />
        </mxCell>
        <mxCell id="dVfjUr-iWaCOCzDGDX7t-10" style="edgeStyle=orthogonalEdgeStyle;rounded=0;orthogonalLoop=1;jettySize=auto;html=1;entryX=0.5;entryY=1;entryDx=0;entryDy=0;" parent="1" source="dVfjUr-iWaCOCzDGDX7t-11" target="dVfjUr-iWaCOCzDGDX7t-19" edge="1">
          <mxGeometry relative="1" as="geometry" />
        </mxCell>
        <mxCell id="dVfjUr-iWaCOCzDGDX7t-11" value="Vehicle CSV" style="rounded=1;whiteSpace=wrap;html=1;" parent="1" vertex="1">
          <mxGeometry x="440" y="300" width="120" height="60" as="geometry" />
        </mxCell>
        <mxCell id="dVfjUr-iWaCOCzDGDX7t-12" style="edgeStyle=orthogonalEdgeStyle;rounded=0;orthogonalLoop=1;jettySize=auto;html=1;" parent="1" source="dVfjUr-iWaCOCzDGDX7t-13" target="dVfjUr-iWaCOCzDGDX7t-19" edge="1">
          <mxGeometry relative="1" as="geometry" />
        </mxCell>
        <mxCell id="dVfjUr-iWaCOCzDGDX7t-13" value="Relationship CSV" style="rounded=1;whiteSpace=wrap;html=1;" parent="1" vertex="1">
          <mxGeometry x="440" y="50" width="120" height="60" as="geometry" />
        </mxCell>
        <mxCell id="dVfjUr-iWaCOCzDGDX7t-18" style="edgeStyle=orthogonalEdgeStyle;rounded=0;orthogonalLoop=1;jettySize=auto;html=1;" parent="1" source="dVfjUr-iWaCOCzDGDX7t-19" target="dVfjUr-iWaCOCzDGDX7t-20" edge="1">
          <mxGeometry relative="1" as="geometry" />
        </mxCell>
        <mxCell id="dVfjUr-iWaCOCzDGDX7t-19" value="Aggerate CSV" style="shape=process;whiteSpace=wrap;html=1;backgroundOutline=1;fillColor=#dae8fc;strokeColor=#6c8ebf;" parent="1" vertex="1">
          <mxGeometry x="620" y="170" width="120" height="60" as="geometry" />
        </mxCell>
        <mxCell id="dVfjUr-iWaCOCzDGDX7t-20" value="Aggegated Person JSON" style="rounded=1;whiteSpace=wrap;html=1;" parent="1" vertex="1">
          <mxGeometry x="860" y="170" width="120" height="60" as="geometry" />
        </mxCell>
        <mxCell id="dVfjUr-iWaCOCzDGDX7t-21" value="" style="endArrow=none;dashed=1;html=1;rounded=0;" parent="1" edge="1">
          <mxGeometry width="50" height="50" relative="1" as="geometry">
            <mxPoint x="90" y="380" as="sourcePoint" />
            <mxPoint x="1050" y="380" as="targetPoint" />
          </mxGeometry>
        </mxCell>
      </root>
    </mxGraphModel>
  </diagram>
  <diagram id="05c9uXctZuyw7_ClHiQ2" name="Page-4">
    <mxGraphModel dx="1434" dy="790" grid="1" gridSize="10" guides="1" tooltips="1" connect="1" arrows="1" fold="1" page="1" pageScale="1" pageWidth="1100" pageHeight="850" math="0" shadow="0">
      <root>
        <mxCell id="0" />
        <mxCell id="1" parent="0" />
        <mxCell id="ZE-nWkMqNcIyirlXJKJp-1" style="edgeStyle=orthogonalEdgeStyle;rounded=0;orthogonalLoop=1;jettySize=auto;html=1;dashed=1;" edge="1" parent="1" source="ZE-nWkMqNcIyirlXJKJp-3" target="ZE-nWkMqNcIyirlXJKJp-58">
          <mxGeometry relative="1" as="geometry">
            <mxPoint x="700" y="448" as="targetPoint" />
            <Array as="points">
              <mxPoint x="740" y="448" />
            </Array>
          </mxGeometry>
        </mxCell>
        <mxCell id="ZE-nWkMqNcIyirlXJKJp-2" value="Full Export in JSON" style="edgeLabel;html=1;align=center;verticalAlign=middle;resizable=0;points=[];" vertex="1" connectable="0" parent="ZE-nWkMqNcIyirlXJKJp-1">
          <mxGeometry x="-0.6353" relative="1" as="geometry">
            <mxPoint as="offset" />
          </mxGeometry>
        </mxCell>
        <mxCell id="ZE-nWkMqNcIyirlXJKJp-3" value="" style="rounded=0;whiteSpace=wrap;html=1;fillColor=#fff2cc;strokeColor=#d6b656;" vertex="1" parent="1">
          <mxGeometry x="560" y="118" width="190" height="200" as="geometry" />
        </mxCell>
        <mxCell id="ZE-nWkMqNcIyirlXJKJp-4" style="edgeStyle=orthogonalEdgeStyle;rounded=0;orthogonalLoop=1;jettySize=auto;html=1;exitX=0.75;exitY=0;exitDx=0;exitDy=0;dashed=1;fontSize=18;" edge="1" parent="1" source="ZE-nWkMqNcIyirlXJKJp-6" target="ZE-nWkMqNcIyirlXJKJp-70">
          <mxGeometry relative="1" as="geometry">
            <Array as="points">
              <mxPoint x="307" y="108" />
            </Array>
            <mxPoint x="332" y="108" as="targetPoint" />
          </mxGeometry>
        </mxCell>
        <mxCell id="ZE-nWkMqNcIyirlXJKJp-5" value="CREATE&lt;br&gt;UPDATE" style="edgeLabel;html=1;align=center;verticalAlign=middle;resizable=0;points=[];" vertex="1" connectable="0" parent="ZE-nWkMqNcIyirlXJKJp-4">
          <mxGeometry x="-0.4091" relative="1" as="geometry">
            <mxPoint x="3" y="25" as="offset" />
          </mxGeometry>
        </mxCell>
        <mxCell id="ZE-nWkMqNcIyirlXJKJp-6" value="TOSHIKO" style="html=1;overflow=block;blockSpacing=1;whiteSpace=wrap;rounded=1;arcSize=35;fontSize=16.7;fontColor=#3a414a;spacing=3.8;strokeColor=#3a414a;strokeOpacity=100;fillOpacity=100;fillColor=#cfe4ff;strokeWidth=0.8;lucidId=_zfvtoaLD8R3;" vertex="1" parent="1">
          <mxGeometry x="215" y="239" width="120" height="60" as="geometry" />
        </mxCell>
        <mxCell id="ZE-nWkMqNcIyirlXJKJp-7" style="edgeStyle=orthogonalEdgeStyle;rounded=0;orthogonalLoop=1;jettySize=auto;html=1;exitX=0.75;exitY=0;exitDx=0;exitDy=0;entryX=0;entryY=0.75;entryDx=0;entryDy=0;fontSize=13;fontColor=#030303;dashed=1;" edge="1" parent="1" source="ZE-nWkMqNcIyirlXJKJp-10" target="ZE-nWkMqNcIyirlXJKJp-52">
          <mxGeometry relative="1" as="geometry">
            <mxPoint x="532" y="180.5" as="targetPoint" />
          </mxGeometry>
        </mxCell>
        <mxCell id="ZE-nWkMqNcIyirlXJKJp-10" value="Informatica Cloud Application Integration" style="html=1;overflow=block;blockSpacing=1;whiteSpace=wrap;shape=process;fontSize=13;fontColor=#3a414a;spacing=3.8;strokeColor=#3a414a;strokeOpacity=100;fillOpacity=100;rounded=1;absoluteArcSize=1;arcSize=9;fillColor=#b8f5ed;strokeWidth=0.8;lucidId=kAfvMmEvo7Zt;" vertex="1" parent="1">
          <mxGeometry x="404" y="224" width="108" height="90" as="geometry" />
        </mxCell>
        <mxCell id="ZE-nWkMqNcIyirlXJKJp-12" style="edgeStyle=orthogonalEdgeStyle;rounded=0;orthogonalLoop=1;jettySize=auto;html=1;entryX=0.579;entryY=0.015;entryDx=0;entryDy=0;entryPerimeter=0;" edge="1" parent="1" target="ZE-nWkMqNcIyirlXJKJp-56">
          <mxGeometry relative="1" as="geometry">
            <mxPoint x="967" y="270" as="sourcePoint" />
            <mxPoint x="1027" y="289" as="targetPoint" />
          </mxGeometry>
        </mxCell>
        <mxCell id="ZE-nWkMqNcIyirlXJKJp-13" style="edgeStyle=orthogonalEdgeStyle;rounded=0;orthogonalLoop=1;jettySize=auto;html=1;exitX=0;exitY=0.25;exitDx=0;exitDy=0;entryX=1.016;entryY=0.626;entryDx=0;entryDy=0;entryPerimeter=0;dashed=1;" edge="1" parent="1" source="ZE-nWkMqNcIyirlXJKJp-14" target="ZE-nWkMqNcIyirlXJKJp-3">
          <mxGeometry relative="1" as="geometry" />
        </mxCell>
        <mxCell id="ZE-nWkMqNcIyirlXJKJp-14" value="Informatica C360 SaaS" style="html=1;overflow=block;blockSpacing=1;whiteSpace=wrap;fontSize=16.7;fontColor=#3a414a;spacing=9;strokeColor=#3a414a;strokeOpacity=100;fillOpacity=100;rounded=1;absoluteArcSize=1;arcSize=9;fillColor=#ffdda6;strokeWidth=0.8;lucidId=FAfvqJk8E.Ea;" vertex="1" parent="1">
          <mxGeometry x="802" y="221" width="195" height="90" as="geometry" />
        </mxCell>
        <mxCell id="ZE-nWkMqNcIyirlXJKJp-20" value="&lt;font style=&quot;font-size: 9px;&quot;&gt;Secured Agent&lt;/font&gt;" style="html=1;overflow=block;blockSpacing=1;whiteSpace=wrap;shape=mxgraph.aws4.agent2;labelPosition=center;verticalLabelPosition=bottom;align=center;verticalAlign=top;pointerEvents=1;fontSize=15;fontColor=#3a414a;spacing=0;strokeColor=#3a414a;strokeOpacity=100;rounded=1;absoluteArcSize=1;arcSize=9;fillColor=#1c7b68;strokeWidth=0.8;lucidId=V0fvz383fF~9;" vertex="1" parent="1">
          <mxGeometry x="370" y="36" width="38" height="32" as="geometry" />
        </mxCell>
        <mxCell id="ZE-nWkMqNcIyirlXJKJp-21" value="Customers" style="html=1;overflow=block;blockSpacing=1;whiteSpace=wrap;fontSize=13;spacing=0;strokeColor=#3a414a;strokeOpacity=100;rounded=1;absoluteArcSize=1;arcSize=9;fillColor=#0078d4;strokeWidth=0.8;lucidId=Y6fv7KWgEG-H;" vertex="1" parent="1">
          <mxGeometry x="830" y="332" width="70" height="46" as="geometry" />
        </mxCell>
        <mxCell id="ZE-nWkMqNcIyirlXJKJp-22" value="" style="html=1;jettySize=18;whiteSpace=wrap;fontSize=13;strokeColor=#000000;strokeOpacity=100;strokeWidth=0.8;rounded=1;arcSize=12;edgeStyle=orthogonalEdgeStyle;startArrow=none;endArrow=block;endFill=1;exitX=0;exitY=0.5;entryX=0.75;entryY=1;lucidId=pPkv3rIOr2aS;entryDx=0;entryDy=0;dashed=1;exitDx=0;exitDy=0;" edge="1" parent="1" source="ZE-nWkMqNcIyirlXJKJp-29" target="ZE-nWkMqNcIyirlXJKJp-6">
          <mxGeometry width="100" height="100" relative="1" as="geometry">
            <Array as="points">
              <mxPoint x="305" y="462" />
            </Array>
          </mxGeometry>
        </mxCell>
        <mxCell id="ZE-nWkMqNcIyirlXJKJp-23" value="" style="html=1;overflow=block;blockSpacing=1;whiteSpace=wrap;shape=image;fontSize=13;spacing=3.8;strokeColor=none;strokeOpacity=100;strokeWidth=0;image=https://images.lucid.app/images/98843362-60f4-46ee-85de-753dc02aa09e/content;lucidId=MXlvsj6demjr;" vertex="1" parent="1">
          <mxGeometry x="910" y="319" width="72" height="72" as="geometry" />
        </mxCell>
        <mxCell id="ZE-nWkMqNcIyirlXJKJp-24" value="Vehicle" style="html=1;overflow=block;blockSpacing=1;whiteSpace=wrap;fontSize=15;fontColor=#3a414a;spacing=3.8;strokeOpacity=0;fillOpacity=0;rounded=1;absoluteArcSize=1;arcSize=9;fillColor=#ffffff;strokeWidth=0.8;lucidId=9XlvQF2a5Y8r;" vertex="1" parent="1">
          <mxGeometry x="864" y="375" width="103" height="27" as="geometry" />
        </mxCell>
        <mxCell id="ZE-nWkMqNcIyirlXJKJp-25" value="" style="html=1;jettySize=18;whiteSpace=wrap;fontSize=13;strokeColor=#3a414a;strokeOpacity=100;strokeWidth=0.8;rounded=1;arcSize=12;edgeStyle=orthogonalEdgeStyle;startArrow=none;endArrow=block;endFill=1;exitX=0.5;exitY=0.997;exitPerimeter=0;entryX=0.5;entryY=1;entryPerimeter=0;lucidId=~YlvwF8hCNBU;" edge="1" parent="1" source="ZE-nWkMqNcIyirlXJKJp-21" target="ZE-nWkMqNcIyirlXJKJp-24">
          <mxGeometry width="100" height="100" relative="1" as="geometry">
            <Array as="points" />
          </mxGeometry>
        </mxCell>
        <mxCell id="ZE-nWkMqNcIyirlXJKJp-26" value="Relationship" style="text;html=1;resizable=0;labelBackgroundColor=default;align=center;verticalAlign=middle;fontStyle=1;fontColor=#333333;fontSize=13.3;" vertex="1" parent="ZE-nWkMqNcIyirlXJKJp-25">
          <mxGeometry relative="1" as="geometry" />
        </mxCell>
        <mxCell id="ZE-nWkMqNcIyirlXJKJp-29" value="Downstream application" style="rounded=0;whiteSpace=wrap;html=1;fontSize=13;" vertex="1" parent="1">
          <mxGeometry x="380.88" y="429.75" width="130" height="65" as="geometry" />
        </mxCell>
        <mxCell id="ZE-nWkMqNcIyirlXJKJp-35" style="edgeStyle=orthogonalEdgeStyle;rounded=0;orthogonalLoop=1;jettySize=auto;html=1;dashed=1;" edge="1" parent="1" source="ZE-nWkMqNcIyirlXJKJp-37" target="ZE-nWkMqNcIyirlXJKJp-6">
          <mxGeometry relative="1" as="geometry" />
        </mxCell>
        <mxCell id="ZE-nWkMqNcIyirlXJKJp-36" value="Create/Update" style="edgeLabel;html=1;align=center;verticalAlign=middle;resizable=0;points=[];" vertex="1" connectable="0" parent="ZE-nWkMqNcIyirlXJKJp-35">
          <mxGeometry x="-0.2806" y="3" relative="1" as="geometry">
            <mxPoint as="offset" />
          </mxGeometry>
        </mxCell>
        <mxCell id="ZE-nWkMqNcIyirlXJKJp-37" value="user" style="shape=umlActor;verticalLabelPosition=bottom;verticalAlign=top;html=1;outlineConnect=0;" vertex="1" parent="1">
          <mxGeometry x="80" y="98" width="30" height="60" as="geometry" />
        </mxCell>
        <mxCell id="ZE-nWkMqNcIyirlXJKJp-38" style="edgeStyle=orthogonalEdgeStyle;rounded=0;orthogonalLoop=1;jettySize=auto;html=1;exitX=0.5;exitY=1;exitDx=0;exitDy=0;" edge="1" parent="1" target="ZE-nWkMqNcIyirlXJKJp-6">
          <mxGeometry relative="1" as="geometry">
            <Array as="points">
              <mxPoint x="1027" y="524" />
              <mxPoint x="275" y="524" />
            </Array>
            <mxPoint x="640" y="523.75" as="targetPoint" />
            <mxPoint x="1027" y="429.75" as="sourcePoint" />
          </mxGeometry>
        </mxCell>
        <mxCell id="ZE-nWkMqNcIyirlXJKJp-80" value="Daily Batch of&amp;nbsp; delta records" style="edgeLabel;html=1;align=center;verticalAlign=middle;resizable=0;points=[];" vertex="1" connectable="0" parent="ZE-nWkMqNcIyirlXJKJp-38">
          <mxGeometry x="-0.6392" y="2" relative="1" as="geometry">
            <mxPoint y="-16" as="offset" />
          </mxGeometry>
        </mxCell>
        <mxCell id="ZE-nWkMqNcIyirlXJKJp-42" value="All the attributes of TOSHIKO" style="shape=note;whiteSpace=wrap;html=1;backgroundOutline=1;darkOpacity=0.05;align=left;" vertex="1" parent="1">
          <mxGeometry x="987" y="78" width="98" height="120" as="geometry" />
        </mxCell>
        <mxCell id="ZE-nWkMqNcIyirlXJKJp-43" value="Using &lt;b&gt;&lt;i&gt;Cloud Application Integration (CAI)&lt;/i&gt;&lt;/b&gt;. it is possible to integrate near-real time events from Customer 360 SaaS" style="shape=ext;double=1;rounded=0;whiteSpace=wrap;html=1;fontSize=15;strokeColor=#da1010;" vertex="1" parent="1">
          <mxGeometry x="651" y="571" width="370" height="80" as="geometry" />
        </mxCell>
        <mxCell id="ZE-nWkMqNcIyirlXJKJp-48" style="edgeStyle=orthogonalEdgeStyle;rounded=0;orthogonalLoop=1;jettySize=auto;html=1;fontSize=11;fontColor=#030303;" edge="1" parent="1" source="ZE-nWkMqNcIyirlXJKJp-49" target="ZE-nWkMqNcIyirlXJKJp-14">
          <mxGeometry relative="1" as="geometry">
            <Array as="points">
              <mxPoint x="750" y="274" />
              <mxPoint x="750" y="274" />
            </Array>
          </mxGeometry>
        </mxCell>
        <mxCell id="ZE-nWkMqNcIyirlXJKJp-49" value="&lt;font style=&quot;font-size: 11px;&quot;&gt;Merge API&lt;br&gt;&lt;/font&gt;" style="whiteSpace=wrap;html=1;fontSize=13;fillColor=none;fontColor=#030303;fillStyle=auto;" vertex="1" parent="1">
          <mxGeometry x="660" y="218" width="84" height="29" as="geometry" />
        </mxCell>
        <mxCell id="ZE-nWkMqNcIyirlXJKJp-50" style="edgeStyle=orthogonalEdgeStyle;rounded=0;orthogonalLoop=1;jettySize=auto;html=1;fontSize=11;fontColor=#030303;exitX=1;exitY=0.5;exitDx=0;exitDy=0;" edge="1" parent="1" source="ZE-nWkMqNcIyirlXJKJp-53" target="ZE-nWkMqNcIyirlXJKJp-49">
          <mxGeometry relative="1" as="geometry">
            <Array as="points">
              <mxPoint x="665" y="278" />
              <mxPoint x="684" y="278" />
            </Array>
          </mxGeometry>
        </mxCell>
        <mxCell id="ZE-nWkMqNcIyirlXJKJp-51" style="edgeStyle=orthogonalEdgeStyle;rounded=0;orthogonalLoop=1;jettySize=auto;html=1;entryX=0.25;entryY=0;entryDx=0;entryDy=0;" edge="1" parent="1" source="ZE-nWkMqNcIyirlXJKJp-52" target="ZE-nWkMqNcIyirlXJKJp-53">
          <mxGeometry relative="1" as="geometry" />
        </mxCell>
        <mxCell id="ZE-nWkMqNcIyirlXJKJp-52" value="Search Match API" style="rounded=0;whiteSpace=wrap;html=1;fillStyle=auto;fontSize=11;fontColor=#030303;fillColor=none;" vertex="1" parent="1">
          <mxGeometry x="570" y="153" width="70" height="55" as="geometry" />
        </mxCell>
        <mxCell id="ZE-nWkMqNcIyirlXJKJp-53" value="Insert API with business entity (cross ref)" style="rounded=0;whiteSpace=wrap;html=1;" vertex="1" parent="1">
          <mxGeometry x="581" y="260" width="95" height="48" as="geometry" />
        </mxCell>
        <mxCell id="ZE-nWkMqNcIyirlXJKJp-54" value="&lt;b&gt;CAI Process&lt;/b&gt;" style="text;html=1;strokeColor=none;fillColor=none;align=center;verticalAlign=middle;whiteSpace=wrap;rounded=0;" vertex="1" parent="1">
          <mxGeometry x="560" y="123" width="205" height="30" as="geometry" />
        </mxCell>
        <mxCell id="ZE-nWkMqNcIyirlXJKJp-55" value="~2600 total records daily&lt;br&gt;~600 new records daily" style="text;html=1;strokeColor=none;fillColor=none;align=left;verticalAlign=middle;whiteSpace=wrap;rounded=0;fontStyle=1" vertex="1" parent="1">
          <mxGeometry x="36" y="370" width="200" height="30" as="geometry" />
        </mxCell>
        <mxCell id="ZE-nWkMqNcIyirlXJKJp-56" value="Export Process" style="overflow=block;blockSpacing=1;whiteSpace=wrap;aspect=fixed;html=1;points=[];align=center;verticalAlign=top;image;image=img/lib/mscae/Data_Box.svg;fontSize=13;spacing=0;strokeColor=#3a414a;strokeOpacity=100;rounded=1;absoluteArcSize=1;arcSize=9;fillColor=#45ADD2;strokeWidth=0.8;lucidId=bUlvEU.89sOu;" vertex="1" parent="1">
          <mxGeometry x="987" y="325" width="69.07" height="66" as="geometry" />
        </mxCell>
        <mxCell id="ZE-nWkMqNcIyirlXJKJp-57" style="edgeStyle=orthogonalEdgeStyle;rounded=0;orthogonalLoop=1;jettySize=auto;html=1;entryX=1;entryY=0.25;entryDx=0;entryDy=0;dashed=1;" edge="1" parent="1" source="ZE-nWkMqNcIyirlXJKJp-58" target="ZE-nWkMqNcIyirlXJKJp-29">
          <mxGeometry relative="1" as="geometry">
            <Array as="points">
              <mxPoint x="560" y="446" />
              <mxPoint x="560" y="446" />
            </Array>
          </mxGeometry>
        </mxCell>
        <mxCell id="ZE-nWkMqNcIyirlXJKJp-58" value="SQS" style="outlineConnect=0;dashed=0;verticalLabelPosition=bottom;verticalAlign=top;align=center;html=1;shape=mxgraph.aws3.sqs;fillColor=#D9A741;gradientColor=none;" vertex="1" parent="1">
          <mxGeometry x="600" y="425" width="40" height="55" as="geometry" />
        </mxCell>
        <mxCell id="ZE-nWkMqNcIyirlXJKJp-59" value="" style="endArrow=none;html=1;rounded=0;dashed=1;" edge="1" parent="1">
          <mxGeometry width="50" height="50" relative="1" as="geometry">
            <mxPoint x="47" y="585" as="sourcePoint" />
            <mxPoint x="107" y="585" as="targetPoint" />
          </mxGeometry>
        </mxCell>
        <mxCell id="ZE-nWkMqNcIyirlXJKJp-60" value="" style="endArrow=none;html=1;rounded=0;" edge="1" parent="1">
          <mxGeometry width="50" height="50" relative="1" as="geometry">
            <mxPoint x="45" y="615" as="sourcePoint" />
            <mxPoint x="105" y="615" as="targetPoint" />
          </mxGeometry>
        </mxCell>
        <mxCell id="ZE-nWkMqNcIyirlXJKJp-61" value="Real-time" style="text;html=1;strokeColor=none;fillColor=none;align=center;verticalAlign=middle;whiteSpace=wrap;rounded=0;" vertex="1" parent="1">
          <mxGeometry x="117" y="571" width="60" height="30" as="geometry" />
        </mxCell>
        <mxCell id="ZE-nWkMqNcIyirlXJKJp-62" value="Batch" style="text;html=1;strokeColor=none;fillColor=none;align=center;verticalAlign=middle;whiteSpace=wrap;rounded=0;" vertex="1" parent="1">
          <mxGeometry x="106" y="599" width="60" height="30" as="geometry" />
        </mxCell>
        <mxCell id="ZE-nWkMqNcIyirlXJKJp-63" value="" style="endArrow=none;html=1;rounded=0;dashed=1;" edge="1" parent="1">
          <mxGeometry width="50" height="50" relative="1" as="geometry">
            <mxPoint x="87" y="52" as="sourcePoint" />
            <mxPoint x="147" y="52" as="targetPoint" />
          </mxGeometry>
        </mxCell>
        <mxCell id="ZE-nWkMqNcIyirlXJKJp-64" value="" style="endArrow=none;html=1;rounded=0;" edge="1" parent="1">
          <mxGeometry width="50" height="50" relative="1" as="geometry">
            <mxPoint x="85" y="82" as="sourcePoint" />
            <mxPoint x="145" y="82" as="targetPoint" />
          </mxGeometry>
        </mxCell>
        <mxCell id="ZE-nWkMqNcIyirlXJKJp-65" value="Real-time" style="text;html=1;strokeColor=none;fillColor=none;align=center;verticalAlign=middle;whiteSpace=wrap;rounded=0;" vertex="1" parent="1">
          <mxGeometry x="157" y="38" width="60" height="30" as="geometry" />
        </mxCell>
        <mxCell id="ZE-nWkMqNcIyirlXJKJp-66" value="Batch" style="text;html=1;strokeColor=none;fillColor=none;align=center;verticalAlign=middle;whiteSpace=wrap;rounded=0;" vertex="1" parent="1">
          <mxGeometry x="146" y="66" width="60" height="30" as="geometry" />
        </mxCell>
        <mxCell id="ZE-nWkMqNcIyirlXJKJp-69" style="edgeStyle=orthogonalEdgeStyle;rounded=0;orthogonalLoop=1;jettySize=auto;html=1;dashed=1;" edge="1" parent="1" source="ZE-nWkMqNcIyirlXJKJp-70" target="ZE-nWkMqNcIyirlXJKJp-10">
          <mxGeometry relative="1" as="geometry" />
        </mxCell>
        <mxCell id="ZE-nWkMqNcIyirlXJKJp-70" value="SQS" style="outlineConnect=0;dashed=0;verticalLabelPosition=bottom;verticalAlign=top;align=center;html=1;shape=mxgraph.aws3.sqs;fillColor=#D9A741;gradientColor=none;" vertex="1" parent="1">
          <mxGeometry x="438" y="82" width="40" height="53" as="geometry" />
        </mxCell>
        <mxCell id="ZE-nWkMqNcIyirlXJKJp-71" value="App&lt;br&gt;Connector" style="text;html=1;strokeColor=none;fillColor=none;align=center;verticalAlign=middle;whiteSpace=wrap;rounded=0;" vertex="1" parent="1">
          <mxGeometry x="425" y="173" width="60" height="30" as="geometry" />
        </mxCell>
        <mxCell id="ZE-nWkMqNcIyirlXJKJp-73" value="1" style="ellipse;whiteSpace=wrap;html=1;fillColor=#fff2cc;strokeColor=#d6b656;" vertex="1" parent="1">
          <mxGeometry x="202" y="138" width="23" height="22" as="geometry" />
        </mxCell>
        <mxCell id="ZE-nWkMqNcIyirlXJKJp-74" value="2" style="ellipse;whiteSpace=wrap;html=1;fillColor=#fff2cc;strokeColor=#d6b656;" vertex="1" parent="1">
          <mxGeometry x="342.38" y="165" width="23" height="22" as="geometry" />
        </mxCell>
        <mxCell id="ZE-nWkMqNcIyirlXJKJp-75" value="3" style="ellipse;whiteSpace=wrap;html=1;fillColor=#fff2cc;strokeColor=#d6b656;" vertex="1" parent="1">
          <mxGeometry x="396.76" y="177" width="23" height="22" as="geometry" />
        </mxCell>
        <mxCell id="ZE-nWkMqNcIyirlXJKJp-77" value="UPDATE / DELETE" style="edgeLabel;html=1;align=center;verticalAlign=middle;resizable=0;points=[];" vertex="1" connectable="0" parent="1">
          <mxGeometry x="389" y="316" as="geometry" />
        </mxCell>
        <mxCell id="ZE-nWkMqNcIyirlXJKJp-78" value="Different FIFO SQS to be mainted for Create, Update and delete" style="shape=document;whiteSpace=wrap;html=1;boundedLbl=1;fillColor=#FFFCA8;strokeColor=#d6b656;align=left;" vertex="1" parent="1">
          <mxGeometry x="531" y="20" width="149" height="80" as="geometry" />
        </mxCell>
        <mxCell id="ZE-nWkMqNcIyirlXJKJp-79" value="JSON in TOSHIKO Storage" style="rounded=0;whiteSpace=wrap;html=1;" vertex="1" parent="1">
          <mxGeometry x="705" y="495" width="120" height="60" as="geometry" />
        </mxCell>
        <mxCell id="ZE-nWkMqNcIyirlXJKJp-81" value="4.1" style="ellipse;whiteSpace=wrap;html=1;fillColor=#fff2cc;strokeColor=#d6b656;" vertex="1" parent="1">
          <mxGeometry x="493" y="196" width="23" height="22" as="geometry" />
        </mxCell>
        <mxCell id="ZE-nWkMqNcIyirlXJKJp-82" value="4.2" style="ellipse;whiteSpace=wrap;html=1;fillColor=#fff2cc;strokeColor=#d6b656;" vertex="1" parent="1">
          <mxGeometry x="617" y="224" width="23" height="22" as="geometry" />
        </mxCell>
        <mxCell id="ZE-nWkMqNcIyirlXJKJp-83" value="4.4" style="ellipse;whiteSpace=wrap;html=1;fillColor=#fff2cc;strokeColor=#d6b656;" vertex="1" parent="1">
          <mxGeometry x="753.5" y="286" width="23" height="22" as="geometry" />
        </mxCell>
        <mxCell id="ZE-nWkMqNcIyirlXJKJp-84" value="4.3" style="ellipse;whiteSpace=wrap;html=1;fillColor=#fff2cc;strokeColor=#d6b656;" vertex="1" parent="1">
          <mxGeometry x="680" y="286" width="23" height="22" as="geometry" />
        </mxCell>
        <mxCell id="ZE-nWkMqNcIyirlXJKJp-85" value="4.5" style="ellipse;whiteSpace=wrap;html=1;fillColor=#fff2cc;strokeColor=#d6b656;" vertex="1" parent="1">
          <mxGeometry x="770" y="215" width="23" height="22" as="geometry" />
        </mxCell>
        <mxCell id="ZE-nWkMqNcIyirlXJKJp-86" value="7" style="ellipse;whiteSpace=wrap;html=1;fillColor=#fff2cc;strokeColor=#d6b656;" vertex="1" parent="1">
          <mxGeometry x="319.38" y="380" width="23" height="22" as="geometry" />
        </mxCell>
        <mxCell id="ZE-nWkMqNcIyirlXJKJp-87" value="5" style="ellipse;whiteSpace=wrap;html=1;fillColor=#fff2cc;strokeColor=#d6b656;" vertex="1" parent="1">
          <mxGeometry x="716" y="457" width="23" height="22" as="geometry" />
        </mxCell>
      </root>
    </mxGraphModel>
  </diagram>
</mxfile>
